<svg height="512" viewBox="0 0 512 512" width="512" xmlns="http://www.w3.org/2000/svg"><g id="filled_outline" data-name="filled outline"><path d="m384 120h80a0 0 0 0 1 0 0v24a40 40 0 0 1 -40 40 40 40 0 0 1 -40-40v-24a0 0 0 0 1 0 0z" fill="#aac16b"/><path d="m464 120v24a40 40 0 0 1 -40 40h-32a40 40 0 0 0 40-40v-24z" fill="#89b140"/><path d="m424 184a40 40 0 0 1 -40-40v-80a40 40 0 0 0 -40-40 40 40 0 0 0 -40 40v120z" fill="#79a73a"/><path d="m392 184h-88v-120a39.856 39.856 0 0 1 8-24 40 40 0 0 1 40 40v64a40 40 0 0 0 40 40z" fill="#79a73a"/><path d="m392 184h-88v-120a39.856 39.856 0 0 1 8-24 40 40 0 0 1 40 40v64a40 40 0 0 0 40 40z" fill="#668d31"/><rect fill="#007af6" height="352" rx="16" width="256" x="72" y="136"/><path d="m104 168h192v136h-192z" fill="#92d1f7"/><path d="m104 176h184v128h-184z" fill="#a6deff"/><path d="m304 64a40 40 0 0 1 40-40h-208a40 40 0 0 0 -40 40v72h208z" fill="#89b140"/><path d="m312 24a40 40 0 0 0 -40 40v32a40 40 0 0 0 -40 40h-64a40 40 0 0 0 -40-40v-32a40 40 0 0 1 40-40z" fill="#aac16b"/><path d="m266.536 24a55.316 55.316 0 0 1 -49.847 31.311 55.316 55.316 0 0 1 -49.846-31.311z" fill="#89b140"/><path d="m211.579 232.219-17.689-8.845a4.944 4.944 0 0 1 0-8.845 11.838 11.838 0 0 1 10.533 0 4.918 4.918 0 0 1 2.733 4.423 8 8 0 0 0 16 0 20.83 20.83 0 0 0 -11.577-18.733 27.421 27.421 0 0 0 -4.423-1.748v-3.519a8 8 0 0 0 -16 0v3.519a27.494 27.494 0 0 0 -4.423 1.748 20.945 20.945 0 0 0 0 37.466l17.69 8.844a4.945 4.945 0 0 1 0 8.845 11.838 11.838 0 0 1 -10.533 0 4.916 4.916 0 0 1 -2.734-4.422 8 8 0 0 0 -16 0 20.831 20.831 0 0 0 11.577 18.733 27.583 27.583 0 0 0 4.423 1.747v3.52a8 8 0 0 0 16 0v-3.519a27.607 27.607 0 0 0 4.423-1.748 20.945 20.945 0 0 0 0-37.466z" fill="#89b140"/><g fill="#2c91ff"><path d="m160 336h-48a8 8 0 0 0 -8 8v48h56z"/><path d="m296 376v-32a8 8 0 0 0 -8-8h-48v40z"/><path d="m176 336h48v56h-48z"/><path d="m104 408v40a8 8 0 0 0 8 8h48v-48z"/><path d="m176 408h48v48h-48z"/><path d="m240 456h48a8 8 0 0 0 8-8v-56h-56z"/></g><path d="m264 224a8 8 0 0 1 -8-8v-16a8 8 0 0 1 16 0v16a8 8 0 0 1 -8 8z" fill="#92d1f7"/><path d="m264 280a8 8 0 0 1 -8-8v-24a8 8 0 0 1 16 0v24a8 8 0 0 1 -8 8z" fill="#92d1f7"/><path d="m296 160h-192a8 8 0 0 0 -8 8v136a8 8 0 0 0 8 8h192a8 8 0 0 0 8-8v-136a8 8 0 0 0 -8-8zm-8 136h-176v-120h176z"/><path d="m464 112h-72v-48a48.053 48.053 0 0 0 -48-48h-208a48.053 48.053 0 0 0 -48 48v64a24.028 24.028 0 0 0 -24 24v320a24.028 24.028 0 0 0 24 24h224a24.028 24.028 0 0 0 24-24v-280h88a48.053 48.053 0 0 0 48-48v-24a8 8 0 0 0 -8-8zm-40 16v16a32.044 32.044 0 0 1 -16 27.7 32.012 32.012 0 0 1 -16-27.7v-16zm-48-64v80a47.793 47.793 0 0 0 12.034 31.745 32.04 32.04 0 0 1 -28.034-31.745v-64a48.065 48.065 0 0 0 -30.312-44.608 31.979 31.979 0 0 1 46.312 28.608zm-96 32v-32a32.04 32.04 0 0 1 28.034-31.745q-1.054 1.192-2.025 2.456a7.931 7.931 0 0 0 -.748.99 47.734 47.734 0 0 0 -9.261 28.299v64h-54.987a32.057 32.057 0 0 1 30.987-24 8 8 0 0 0 8-8zm-16-32v24.667a48.125 48.125 0 0 0 -39.333 39.333h-49.334a48.125 48.125 0 0 0 -39.333-39.333v-24.667a32.046 32.046 0 0 1 26.367-31.493 63.735 63.735 0 0 0 54.322 30.8 63.733 63.733 0 0 0 54.626-31.307h4.937a47.81 47.81 0 0 0 -12.252 32zm-12.494-32a47.618 47.618 0 0 1 -34.817 15.311 47.617 47.617 0 0 1 -34.816-15.311zm-147.506 32a32.041 32.041 0 0 1 28.041-31.746 47.79 47.79 0 0 0 -12.041 31.746v32a8 8 0 0 0 8 8 32.057 32.057 0 0 1 30.987 24h-54.987zm216 408a8.009 8.009 0 0 1 -8 8h-224a8.009 8.009 0 0 1 -8-8v-320a8.009 8.009 0 0 1 8-8h224a8.009 8.009 0 0 1 8 8zm-8-344v-64a31.793 31.793 0 0 1 4.146-15.723 32.042 32.042 0 0 1 27.854 31.723v64a47.8 47.8 0 0 0 12.261 32h-20.261v-24a24.028 24.028 0 0 0 -24-24zm144 16a32.042 32.042 0 0 1 -28 31.742 48.04 48.04 0 0 0 12-31.742v-16h16z"/><path d="m204.423 255.374a11.838 11.838 0 0 1 -10.533 0 4.916 4.916 0 0 1 -2.734-4.422 8 8 0 0 0 -16 0 20.831 20.831 0 0 0 11.577 18.733 27.583 27.583 0 0 0 4.423 1.747v3.52a8 8 0 0 0 16 0v-3.519a27.607 27.607 0 0 0 4.423-1.748 20.945 20.945 0 0 0 0-37.466l-17.689-8.845a4.944 4.944 0 0 1 0-8.845 11.838 11.838 0 0 1 10.533 0 4.918 4.918 0 0 1 2.733 4.423 8 8 0 0 0 16 0 20.83 20.83 0 0 0 -11.577-18.733 27.421 27.421 0 0 0 -4.423-1.748v-3.519a8 8 0 0 0 -16 0v3.519a27.494 27.494 0 0 0 -4.423 1.748 20.945 20.945 0 0 0 0 37.466l17.69 8.844a4.945 4.945 0 0 1 0 8.845z"/><path d="m288 328h-176a16.019 16.019 0 0 0 -16 16v104a16.019 16.019 0 0 0 16 16h184a8 8 0 0 0 8-8v-112a16.019 16.019 0 0 0 -16-16zm0 48h-48v-32h48zm-64 8v8h-48v-48h48zm0 24v40h-48v-40zm-64-64v48h-48v-48zm-48 64h48v40h-48zm128 40v-56h48v56z"/><path d="m264 224a8 8 0 0 0 8-8v-16a8 8 0 0 0 -16 0v16a8 8 0 0 0 8 8z"/><path d="m264 280a8 8 0 0 0 8-8v-24a8 8 0 0 0 -16 0v24a8 8 0 0 0 8 8z"/></g></svg>