<svg id="Filled_expand" height="512" viewBox="0 0 512 512" width="512" xmlns="http://www.w3.org/2000/svg" data-name="Filled expand"><g><circle cx="256" cy="256" fill="#ecfbf9" r="208"/><path d="m47.919 314.149a217.453 217.453 0 0 1 0-116.3l15.412 4.3a201.451 201.451 0 0 0 0 107.7z"/><path d="m256 472a216.483 216.483 0 0 1 -58.149-7.919l4.3-15.413a201.424 201.424 0 0 0 107.7 0l4.3 15.413a216.483 216.483 0 0 1 -58.151 7.919z"/><path d="m464.081 314.149-15.412-4.3a201.451 201.451 0 0 0 0-107.7l15.412-4.3a217.453 217.453 0 0 1 0 116.3z"/><path d="m309.851 63.332a201.424 201.424 0 0 0 -107.7 0l-4.3-15.413a217.453 217.453 0 0 1 116.3 0z"/><g><path d="m144 416v-44.232a20 20 0 0 1 10.287-17.483l61.713-34.285h80l61.713 34.285a20 20 0 0 1 10.287 17.483v44.232z" fill="#57cee6"/><path d="m208 408h96v16h-96z"/><g fill="#ffd4cf"><path d="m296 320-40 32-40-32 16-32h48z"/><path d="m304 192h-96v69.3a20 20 0 0 0 8.906 16.641l28 18.667a20 20 0 0 0 22.188 0l28-18.667a20 20 0 0 0 8.906-16.641z"/></g><path d="m192 216v-34a30 30 0 0 1 30-30h50v34a30 30 0 0 1 -30 30z" fill="#fa5d3f"/><path d="m312 192h-40v-40l23.922 4.784a20 20 0 0 1 16.078 19.616z" fill="#d3463d"/><path d="m216 320 40 32-56 16z" fill="#ecfbf9"/><path d="m296 320-40 32 56 16z" fill="#ecfbf9"/><path d="m331.885 330.785-29.836-16.576-11.736-23.47 9.218-6.145a27.943 27.943 0 0 0 12.469-23.294v-61.3a8 8 0 0 0 8-8v-15.6a28.075 28.075 0 0 0 -22.509-27.456l-23.8-4.761a7.711 7.711 0 0 0 -.779-.127l-.2-.02h-.039l-.159-.011h-.069-.122-.1-.085l-.138-.025h-50a38.043 38.043 0 0 0 -38 38v34a8 8 0 0 0 8 8h8v37.3a27.943 27.943 0 0 0 12.469 23.3l9.218 6.145-11.736 23.47-29.836 16.576 7.77 13.986 14.021-7.79-9.5 28.489a8 8 0 0 0 9.788 10.222l53.806-15.378 53.8 15.372a8 8 0 0 0 9.788-10.222l-9.5-28.489 14.021 7.79zm-27.885-154.385v7.6h-24v-22.241l14.353 2.87a12.034 12.034 0 0 1 9.647 11.771zm-104 5.6a22.025 22.025 0 0 1 22-22h42v26a22.025 22.025 0 0 1 -22 22h-42zm16 79.3v-37.3h26a38.063 38.063 0 0 0 35.328-24h18.672v61.3a11.977 11.977 0 0 1 -5.344 9.985l-28 18.667a11.97 11.97 0 0 1 -13.312 0l-28-18.667a11.977 11.977 0 0 1 -5.344-9.985zm24.469 41.964a27.922 27.922 0 0 0 31.062 0l5.366-3.577 9.056 18.11-29.953 23.958-29.953-23.962 9.056-18.11zm-28.083 52.881 7.575-22.727 18.939 15.147zm60.714-7.576 18.939-15.151 7.575 22.727z"/></g><g><circle cx="104" cy="104" fill="#fac850" r="80"/><circle cx="104" cy="104" fill="#fffdfa" r="56"/><path d="m104 192a88 88 0 1 1 88-88 88.1 88.1 0 0 1 -88 88zm0-160a72 72 0 1 0 72 72 72.081 72.081 0 0 0 -72-72z"/><path d="m96 80h40v-16h-24v-8h-16v8a24 24 0 0 0 0 48h16a8 8 0 0 1 0 16h-40v16h24v8h16v-8a24 24 0 0 0 0-48h-16a8 8 0 0 1 0-16z"/></g><g><circle cx="408" cy="104" fill="#c85aed" r="80"/><path d="m408 192a88 88 0 1 1 88-88 88.1 88.1 0 0 1 -88 88zm0-160a72 72 0 1 0 72 72 72.081 72.081 0 0 0 -72-72z"/><g><path d="m392 112v-48l64 24z" fill="#f5f1ff"/><path d="m392 120a8 8 0 0 1 -8-8v-48a8 8 0 0 1 10.809-7.491l64 24a8 8 0 0 1 0 14.982l-64 24a8.007 8.007 0 0 1 -2.809.509zm8-44.456v24.912l33.216-12.456z"/><path d="m458.809 80.509-64-24a8 8 0 0 0 -10.809 7.491v88h16v-34.456l58.809-22.053a8 8 0 0 0 0-14.982zm-58.809 19.947v-24.912l33.216 12.456z"/></g></g><g><circle cx="408" cy="408" fill="#fac850" r="80"/><path d="m408 496a88 88 0 1 1 88-88 88.1 88.1 0 0 1 -88 88zm0-160a72 72 0 1 0 72 72 72.081 72.081 0 0 0 -72-72z"/><g><path d="m440 448h-64l-16-48h96z" fill="#fffdfa"/><path d="m462.49 395.322a8 8 0 0 0 -6.49-3.322h-10.584l-13.988-34.971-14.856 5.942 11.612 29.029h-40.368l11.612-29.029-14.856-5.942-13.988 34.971h-10.584a8 8 0 0 0 -7.59 10.53l16 48a8 8 0 0 0 7.59 5.47h64a8 8 0 0 0 7.59-5.47l16-48a8.007 8.007 0 0 0 -1.1-7.208zm-28.256 44.678h-52.468l-10.666-32h73.8z"/></g></g><g><circle cx="104" cy="408" fill="#c85aed" r="80"/><path d="m103.905 360.579 14.798 28.777 33.09 4.615-23.944 22.4 5.653 31.629-29.597-14.933-29.596 14.933 5.652-31.629-23.944-22.4 33.09-4.615z" fill="#f5f1ff"/></g><g><path d="m104 496a88 88 0 1 1 88-88 88.1 88.1 0 0 1 -88 88zm0-160a72 72 0 1 0 72 72 72.081 72.081 0 0 0 -72-72z"/><path d="m133.5 456a8 8 0 0 1 -3.6-.857l-25.993-13.116-25.995 13.116a8 8 0 0 1 -11.478-8.55l4.887-27.35-20.769-19.43a8 8 0 0 1 4.359-13.765l28.98-4.042 12.9-25.086a8 8 0 0 1 7.114-4.341 8 8 0 0 1 7.115 4.342l12.9 25.085 28.979 4.042a8 8 0 0 1 4.361 13.765l-20.77 19.43 4.888 27.35a8 8 0 0 1 -7.878 9.407zm-29.6-30.933a8 8 0 0 1 3.6.857l15.3 7.721-2.835-15.867a8 8 0 0 1 2.409-7.249l11.7-10.949-16.49-2.3a8 8 0 0 1 -6.009-4.265l-7.684-14.942-7.684 14.942a8 8 0 0 1 -6.009 4.265l-16.49 2.3 11.7 10.949a8 8 0 0 1 2.41 7.249l-2.818 15.867 15.3-7.721a8 8 0 0 1 3.605-.857z"/></g></g></svg>