<svg id="Capa_1" enable-background="new 0 0 512 512" height="100" viewBox="0 0 512 512" width="100" xmlns="http://www.w3.org/2000/svg"><g><g><path d="m31.548 167.823 96.194 44.89 64.129 3.206 24.048 88.178 40.081 16.032 40.081-16.032 24.048-88.178 64.129-3.206 96.194-44.89z" fill="#d1edff"/><path d="m255.948 338.027h.104l64.077 134.408 16.032 8.017 16.033-8.017-56.113-168.338h-80.162z" fill="#4bc3ef"/><path d="m31.548 185.027c0 12.815 10.049 23.379 22.847 24.019l41.282 2.064 8.016-43.287h-72.145z" fill="#fbbd80"/><path d="m95.677 211.11 32.065 1.603v-44.89h-32.065z" fill="#b3e1f8"/><path d="m480.452 185.027c0 12.815-10.049 23.379-22.847 24.019l-41.282 2.064-8.016-43.287h72.145z" fill="#fbbd80"/><path d="m416.323 211.11-32.065 1.603v-44.89h32.065z" fill="#b3e1f8"/><path d="m480.452 7.5h-448.904c-13.281 0-24.048 10.767-24.048 24.048v114.152c0 13.282 10.767 24.048 24.048 24.048h448.903c13.282 0 24.048-10.767 24.048-24.048v-114.152c.001-13.281-10.766-24.048-24.047-24.048z" fill="#ff5f7a"/><path d="m503.027 151.79h-447.43c-13.26 0-24.048-10.788-24.048-24.048v-118.769-1.473c-13.282 0-24.049 10.767-24.049 24.048v120.242c0 13.282 10.767 24.048 24.048 24.048h448.903c13.282 0 24.048-10.767 24.048-24.048z" fill="#fb4455"/><circle cx="256" cy="199.887" fill="#fbbd80" r="32.065"/><path d="m349.449 472.435h-29.32v24.048c0 4.427 3.589 8.016 8.016 8.016h48.097l-3.462-13.849c-2.677-10.704-12.296-18.215-23.331-18.215z" fill="#615260"/><path d="m191.871 215.919.023.001c19.332.942 35.864 14.21 40.969 32.879l15.121 55.297h-32.065z" fill="#b3e1f8"/><path d="m175.839 480.452 16.032-8.017 64.077-134.408h.052l-8.016-33.93h-32.065l-56.113 168.338z" fill="#1badde"/><path d="m162.551 472.435h29.32v24.048c0 4.427-3.589 8.016-8.016 8.016h-48.097l3.462-13.849c2.677-10.704 12.296-18.215 23.331-18.215z" fill="#615260"/></g><g><path d="m480.452 0h-448.904c-17.396 0-31.548 14.152-31.548 31.548v120.242c0 14.812 10.262 27.265 24.048 30.641v2.597c0 16.828 13.166 30.669 29.973 31.509l132.044 6.603 22.021 80.74-4.626 13.878c-1.31 3.93.814 8.177 4.744 9.487.787.262 1.586.387 2.373.387 3.14 0 6.066-1.987 7.114-5.13l3.635-10.904h69.35l51.113 153.339h-16.925l-62.042-130.137c-1.244-2.61-3.878-4.272-6.77-4.272h-.104c-2.892 0-5.526 1.663-6.77 4.272l-62.04 130.136h-16.925l36.79-110.37c1.31-3.93-.814-8.177-4.744-9.487-3.928-1.309-8.176.814-9.487 4.744l-38.763 116.291c-10.7 2.999-19.262 11.509-22.064 22.72l-3.462 13.849c-.561 2.241-.057 4.614 1.364 6.435s3.602 2.884 5.912 2.884h48.097c8.556 0 15.516-6.96 15.516-15.516v-22.352l56.628-118.787 56.629 118.785v22.352c0 8.556 6.96 15.516 15.516 15.516h48.097c2.31 0 4.49-1.064 5.912-2.884s1.925-4.194 1.364-6.435l-3.462-13.849c-2.802-11.211-11.364-19.721-22.064-22.72l-54.078-162.234 22.021-80.74 132.044-6.603c16.808-.84 29.973-14.681 29.973-31.509v-2.597c13.786-3.374 24.048-15.827 24.048-30.639v-120.242c0-17.396-14.152-31.548-31.548-31.548zm-296.081 496.484c0 .285-.231.516-.516.516h-38.491l1.132-4.53c1.845-7.38 8.447-12.535 16.055-12.535h21.82zm181.133-4.014 1.132 4.53h-38.491c-.285 0-.516-.231-.516-.516v-16.548h21.82c7.608 0 14.21 5.154 16.055 12.534zm-326.456-307.443v-1.688h49.129v19.886l-33.407-1.67c-8.816-.441-15.722-7.701-15.722-16.528zm81.194-1.688v21.49l-17.064-.854v-20.636zm288.581 0v20.636l-17.064.854v-21.49zm48.406 18.216-33.407 1.67v-19.886h49.129v1.688c.001 8.827-6.905 16.087-15.722 16.528zm39.771-49.765c0 9.125-7.423 16.549-16.548 16.549h-160.323c-4.142 0-7.5 3.357-7.5 7.5 0 4.142 3.358 7.5 7.5 7.5h56.629v22.24l-57.004 2.85c-3.24.162-6.008 2.388-6.861 5.518l-22.541 82.65h-68.704l-22.541-82.65c-.854-3.129-3.622-5.355-6.861-5.518l-57.004-2.85v-22.24h56.629c4.142 0 7.5-3.358 7.5-7.5 0-4.143-3.358-7.5-7.5-7.5h-160.323c-9.125 0-16.548-7.424-16.548-16.549v-120.242c0-9.124 7.423-16.548 16.548-16.548h448.903c9.126 0 16.549 7.424 16.549 16.548z"/><path d="m193.824 62.38c-.026-.069-.053-.137-.081-.205-1.349-3.279-4.509-5.396-8.054-5.396-.003 0-.006 0-.009 0-3.548.004-6.709 2.128-8.052 5.412-.023.057-.045.113-.067.17l-20.03 52.591c-1.474 3.871.468 8.204 4.339 9.678 3.872 1.475 8.204-.469 9.678-4.339l3.149-8.268h21.828l3.112 8.246c1.134 3.004 3.987 4.854 7.019 4.854.879 0 1.775-.156 2.646-.485 3.875-1.463 5.832-5.79 4.369-9.665zm-13.413 34.642 5.251-13.787 5.203 13.787z"/><path d="m406.47 56.779c-4.142.04-7.467 3.43-7.427 7.572l.288 29.792-23.498-34.026c-1.865-2.7-5.27-3.876-8.403-2.898-3.134.977-5.268 3.878-5.268 7.16v53.243c0 4.142 3.358 7.5 7.5 7.5s7.5-3.358 7.5-7.5v-29.185l22.331 32.336c2.171 3.136 5.804 4.465 9.259 3.387 3.517-1.099 5.79-4.371 5.789-8.41l-.498-51.544c-.042-4.142-3.441-7.487-7.573-7.427z"/><path d="m311.976 110.076c-3.813.021-7.837.037-11.136.042v-45.84c0-4.142-3.358-7.5-7.5-7.5s-7.5 3.358-7.5 7.5v53.297c0 3.653 2.632 6.775 6.232 7.392.539.093.915.157 6.857.157 2.867 0 7.029-.016 13.131-.049 4.142-.023 7.481-3.4 7.458-7.542s-3.389-7.452-7.542-7.457z"/><path d="m339.5 56.778c-4.142 0-7.5 3.358-7.5 7.5v53.342c0 4.142 3.358 7.5 7.5 7.5s7.5-3.358 7.5-7.5v-53.342c0-4.141-3.358-7.5-7.5-7.5z"/><path d="m456.403 72.022c4.142 0 7.5-3.358 7.5-7.5s-3.358-7.5-7.5-7.5h-22.271c-4.142 0-7.5 3.358-7.5 7.5v52.855c0 4.142 3.358 7.5 7.5 7.5h22.271c4.142 0 7.5-3.358 7.5-7.5s-3.358-7.5-7.5-7.5h-14.771v-11.428h13.129c4.142 0 7.5-3.357 7.5-7.5 0-4.142-3.358-7.5-7.5-7.5h-13.129v-11.427z"/><path d="m139.679 72.022c4.142 0 7.5-3.358 7.5-7.5s-3.358-7.5-7.5-7.5h-22.271c-4.142 0-7.5 3.358-7.5 7.5v52.855c0 4.142 3.358 7.5 7.5 7.5h22.271c4.142 0 7.5-3.358 7.5-7.5s-3.358-7.5-7.5-7.5h-14.771v-11.428h13.129c4.142 0 7.5-3.357 7.5-7.5 0-4.142-3.358-7.5-7.5-7.5h-13.129v-11.427z"/><path d="m256 160.322c-21.816 0-39.564 17.749-39.564 39.565s17.749 39.564 39.564 39.564 39.564-17.749 39.564-39.564-17.748-39.565-39.564-39.565zm0 64.13c-13.545 0-24.564-11.02-24.564-24.564s11.02-24.565 24.564-24.565 24.564 11.02 24.564 24.565-11.019 24.564-24.564 24.564z"/><path d="m70.257 57.567h-14.66c-1.992 0-3.901.792-5.308 2.202s-2.196 3.321-2.192 5.312c0 0 .105 51.777.105 51.777.007 1.989.804 3.895 2.216 5.296 1.405 1.395 3.304 2.177 5.284 2.177h.028c.443-.001 10.904-.042 15.087-.115 16.134-.282 27.844-14.272 27.844-33.267 0-19.967-11.414-33.382-28.404-33.382zm.298 51.652c-1.717.03-4.603.055-7.379.073-.019-6.044-.055-30.429-.066-36.725h7.147c12.437 0 13.404 14.07 13.404 18.382 0 8.98-4.052 18.112-13.106 18.27z"/><path d="m223.921 116.858c.007 1.989.804 3.895 2.216 5.296 1.405 1.395 3.304 2.177 5.284 2.177h.028c.443-.001 10.904-.042 15.087-.115 16.134-.282 27.844-14.272 27.844-33.267 0-19.967-11.415-33.382-28.404-33.382h-14.661c-1.992 0-3.901.792-5.308 2.202s-2.196 3.321-2.192 5.312c.001.001.106 51.777.106 51.777zm22.056-44.291c12.437 0 13.404 14.07 13.404 18.382 0 8.98-4.052 18.111-13.106 18.27-1.716.03-4.602.055-7.378.073-.019-6.044-.055-30.429-.066-36.725z"/></g></g></svg>