<svg id="Capa_1" enable-background="new 0 0 512 512" height="512" viewBox="0 0 512 512" width="512" xmlns="http://www.w3.org/2000/svg"><g><g><path d="m414.089 442.035h-301.178c-5.523 0-10-4.477-10-10v-281.768c0-5.523 4.477-10 10-10h301.178c5.523 0 10 4.477 10 10v281.768c0 5.523-4.477 10-10 10z" fill="#e2ae83"/></g><g><path d="m424.089 150.267c0-5.523-4.477-10-10-10h-81.469v111.002c0 19.151 15.58 34.732 34.731 34.732h56.737v-135.734z" fill="#d39c72"/></g><g><path d="m130.72 432.035v-281.768c0-5.523 4.477-10 10-10h-27.809c-5.523 0-10 4.477-10 10v281.768c0 5.523 4.477 10 10 10h27.809c-5.523 0-10-4.477-10-10z" fill="#d39c72"/></g><g><path d="m283.333 213.214-15.894-12.467c-1.764-1.383-4.232-1.424-6.04-.1l-17.863 13.083c-3.303 2.419-7.954.06-7.954-4.034v-69.43h55.838v69.014c-.001 4.17-4.806 6.508-8.087 3.934z" fill="#dc4955"/></g><g><path d="m500.036 71.51-61.952-61.141c-3.894-3.843-10.154-3.843-14.049 0l-61.952 61.141c-2.856 2.819-4.464 6.664-4.464 10.676v169.083c0 5.375 4.357 9.732 9.732 9.732h127.416c5.375 0 9.732-4.357 9.732-9.732v-169.083c.001-4.012-1.607-7.857-4.463-10.676zm-51.696-.117c0 9.543-7.737 17.28-17.28 17.28-9.543 0-17.28-7.737-17.28-17.28 0-9.543 7.737-17.28 17.28-17.28 9.543 0 17.28 7.737 17.28 17.28z" fill="#dc4955"/></g><g><path d="m381.62 251.269v-160.545c0-4.013 1.608-7.858 4.464-10.676l61.302-60.499-9.301-9.179c-3.894-3.843-10.154-3.843-14.049 0l-61.953 61.14c-2.856 2.818-4.464 6.664-4.464 10.676v169.083c0 5.375 4.357 9.732 9.732 9.732h24c-5.374 0-9.731-4.357-9.731-9.732z" fill="#c42430"/></g><g><path d="m366.35 433.802h-84.133c10.449 0 18.92-8.471 18.92-18.92 0-10.449-8.471-18.92-18.92-18.92h-31.133c-8.399 0-16.725-1.554-24.558-4.583l-23.817-9.211c-7.833-3.03-16.159-4.583-24.558-4.583h-75.24v96.485h263.439c11.119 0 20.133-9.014 20.133-20.133.001-11.121-9.013-20.135-20.133-20.135z" fill="#ffcebf"/></g><g><path d="m366.35 454.853h-263.439v19.216h263.439c11.119 0 20.133-9.014 20.133-20.133 0-3.479-.883-6.753-2.437-9.608-3.411 6.27-10.056 10.525-17.696 10.525z" fill="#ffb09e"/></g><g><path d="m118.186 368.368v126.118c0 5.523-4.477 10-10 10h-55.666v-146.118h55.665c5.523 0 10.001 4.478 10.001 10z" fill="#f1f6f7"/></g><g><path d="m65.48 358.368v146.118h-52.98c-2.761 0-5-2.239-5-5v-136.118c0-2.761 2.239-5 5-5z" fill="#7398d4"/></g><g><path d="m33.99 499.487v-136.119c0-2.761 2.239-5 5-5h-26.49c-2.761 0-5 2.239-5 5v136.118c0 2.761 2.239 5 5 5h26.49c-2.761.001-5-2.238-5-4.999z" fill="#4377c4"/></g><g><path d="m424.089 286.987c-4.143 0-7.5 3.358-7.5 7.5v137.548c0 1.378-1.121 2.5-2.5 2.5h-28.085c-5.013-5.078-11.971-8.232-19.654-8.232h-60.31c1.664-3.458 2.598-7.333 2.598-11.42 0-14.568-11.852-26.42-26.42-26.42h-31.134c-7.503 0-14.855-1.372-21.853-4.078l-23.816-9.211c-8.729-3.376-17.902-5.088-27.264-5.088h-52.466v-1.716c0-9.649-7.851-17.5-17.5-17.5h-95.685c-6.893 0-12.5 5.607-12.5 12.5v136.118c0 6.893 5.607 12.5 12.5 12.5h95.686c9.649 0 17.5-7.851 17.5-17.5v-12.917h240.665c15.236 0 27.633-12.396 27.633-27.633 0-1.498-.124-2.967-.354-4.401h20.46c9.649 0 17.5-7.851 17.5-17.5v-137.55c-.001-4.142-3.359-7.5-7.501-7.5zm-366.109 210h-42.98v-131.119h42.98zm52.706-2.5c0 1.378-1.121 2.5-2.5 2.5h-35.206v-131.119h35.205c1.379 0 2.5 1.122 2.5 2.5v126.119zm255.665-27.918h-240.665v-81.485h52.466c7.503 0 14.855 1.372 21.853 4.079l23.817 9.211c8.729 3.376 17.902 5.088 27.263 5.088h31.134c6.297 0 11.42 5.123 11.42 11.42s-5.123 11.42-11.42 11.42h-43.84c-4.143 0-7.5 3.358-7.5 7.5s3.357 7.5 7.5 7.5h127.973c6.966 0 12.633 5.667 12.633 12.633s-5.669 12.634-12.634 12.634z"/><path d="m341.24 396.348h48.24c4.143 0 7.5-3.358 7.5-7.5s-3.357-7.5-7.5-7.5h-48.24c-4.143 0-7.5 3.358-7.5 7.5s3.358 7.5 7.5 7.5z"/><path d="m341.24 365.868h48.24c4.143 0 7.5-3.358 7.5-7.5s-3.357-7.5-7.5-7.5h-48.24c-4.143 0-7.5 3.358-7.5 7.5s3.358 7.5 7.5 7.5z"/><path d="m431.06 96.173c13.664 0 24.78-11.116 24.78-24.78s-11.116-24.78-24.78-24.78c-13.663 0-24.779 11.116-24.779 24.78-.001 13.664 11.115 24.78 24.779 24.78zm0-34.56c5.393 0 9.78 4.387 9.78 9.78s-4.388 9.78-9.78 9.78-9.779-4.387-9.779-9.78c-.001-5.393 4.386-9.78 9.779-9.78z"/><path d="m505.304 66.171-61.951-61.14c-6.779-6.691-17.808-6.689-24.585 0l-61.953 61.142c-4.254 4.199-6.694 10.036-6.694 16.014v50.58h-237.21c-9.649 0-17.5 7.851-17.5 17.5v173.2c0 4.142 3.357 7.5 7.5 7.5s7.5-3.358 7.5-7.5v-173.2c0-1.378 1.121-2.5 2.5-2.5h115.17v61.73c0 4.778 2.658 9.067 6.937 11.194 1.777.883 3.684 1.318 5.577 1.318 2.665 0 5.308-.861 7.533-2.548l15.372-11.645 15.371 11.644c3.808 2.885 8.831 3.356 13.111 1.23 4.278-2.127 6.937-6.416 6.937-11.194v-61.73h51.201v103.502c0 9.502 7.729 17.232 17.231 17.232h127.416c9.502 0 17.232-7.73 17.232-17.232v-169.082c.001-5.979-2.439-11.816-6.695-16.015zm-221.385 138.295-12.872-9.75c-2.222-1.683-4.884-2.524-7.547-2.524-2.662 0-5.326.842-7.548 2.524l-12.871 9.75v-56.7h40.838zm4.01 3.038-.005-.004c.002.001.004.003.005.004zm209.071 43.765c0 1.23-1.001 2.232-2.232 2.232h-127.416c-1.23 0-2.231-1.001-2.231-2.232v-169.083c0-1.993.813-3.939 2.231-5.338l61.953-61.142c.484-.478 1.119-.716 1.755-.716s1.271.239 1.756.717l61.952 61.141c.001 0 .001 0 .001.001 1.418 1.399 2.231 3.345 2.231 5.337z"/><path d="m431.06 144.269c5.968 0 10.823 4.855 10.823 10.823 0 4.142 3.357 7.5 7.5 7.5s7.5-3.358 7.5-7.5c0-11.631-7.731-21.487-18.323-24.709v-10.046c0-4.142-3.357-7.5-7.5-7.5s-7.5 3.358-7.5 7.5v10.046c-10.592 3.222-18.322 13.078-18.322 24.709 0 14.239 11.584 25.823 25.822 25.823.196 0 .391-.008.583-.022 5.698.304 10.24 5.035 10.24 10.807 0 5.968-4.855 10.823-10.823 10.823s-10.822-4.855-10.822-10.823c0-4.142-3.357-7.5-7.5-7.5s-7.5 3.358-7.5 7.5c0 11.631 7.731 21.487 18.322 24.709v10.046c0 4.142 3.357 7.5 7.5 7.5s7.5-3.358 7.5-7.5v-10.046c10.592-3.222 18.323-13.078 18.323-24.709 0-14.239-11.584-25.823-25.823-25.823-.196 0-.391.008-.583.022-5.697-.304-10.239-5.035-10.239-10.807-.001-5.967 4.854-10.823 10.822-10.823z"/></g></g></svg>