<svg height="512pt" viewBox="0 -42 512 512" width="512pt" xmlns="http://www.w3.org/2000/svg"><path d="m123.273438 83.15625 174.644531-75.546875 174.640625 75.546875v309.175781h-349.285156zm0 0" fill="#f7526e"/><path d="m161.121094 124.339844h273.589844v255.347656h-273.589844zm0 0" fill="#ccc"/><path d="m189.113281 152.332031h217.605469v227.355469h-217.605469zm0 0" fill="#1a414c"/><path d="m42.523438 379.6875h426.949218c19.289063 0 34.921875 15.636719 34.921875 34.921875v5.957031h-496.789062v-5.957031c0-19.285156 15.632812-34.921875 34.917969-34.921875zm0 0" fill="#2e5968"/><path d="m42.523438 236.351562h297.164062v143.335938h-297.164062zm0 0" fill="#f2a755"/><path d="m159.035156 236.351562h180.652344v143.335938h-180.652344zm0 0" fill="#f4d553"/><path d="m221.261719 254.921875 60.113281 62.925781v-33.238281h98.839844v-59.371094h-98.839844v-33.238281zm0 0" fill="#61b4d8"/><path d="m480.15625 373.445312v-228.246093c0-4.199219-3.402344-7.605469-7.601562-7.605469-4.203126 0-7.605469 3.40625-7.605469 7.605469v226.886719h-22.640625v-247.746094c0-4.199219-3.402344-7.605469-7.601563-7.605469h-273.582031c-4.199219 0-7.601562 3.40625-7.601562 7.605469v104.40625h-22.640626v-140.59375l167.035157-72.261719 167.03125 72.261719v26.628906c0 4.199219 3.402343 7.601562 7.605469 7.601562 4.199218 0 7.601562-3.402343 7.601562-7.601562v-31.625c0-3.03125-1.800781-5.773438-4.582031-6.976562l-174.640625-75.554688c-1.921875-.832031-4.113282-.832031-6.035156 0l-174.636719 75.554688c-2.785157 1.203124-4.585938 3.945312-4.585938 6.976562v145.589844h-73.148437c-4.199219 0-7.601563 3.40625-7.601563 7.605468v136.425782c-19.832031 3.597656-34.925781 20.980468-34.925781 41.832031v5.957031c0 4.199219 3.40625 7.605469 7.605469 7.605469h63.085937c4.199219 0 7.605469-3.40625 7.605469-7.605469 0-4.199218-3.40625-7.601562-7.605469-7.601562h-55.433594c.851563-14.292969 12.742188-25.660156 27.242188-25.671875h.027344 427.027344c14.472656.042969 26.335937 11.398437 27.1875 25.671875h-395.632813c-4.199219 0-7.605469 3.402344-7.605469 7.601562 0 4.199219 3.40625 7.605469 7.605469 7.605469h403.285156c4.203125 0 7.605469-3.40625 7.605469-7.605469v-5.957031c0-19.757813-13.546875-36.414063-31.84375-41.164063zm-328.726562-129.492187v128.132813h-43.042969v-128.132813zm69.792968 0-5.460937 5.71875c-2.808594 2.9375-2.808594 7.566406 0 10.503906l60.113281 62.925781c1.464844 1.53125 3.464844 2.351563 5.5 2.351563.953125 0 1.910156-.175781 2.828125-.546875 2.886719-1.15625 4.777344-3.949219 4.777344-7.054688v-25.636718h43.105469v79.871094h-165.449219v-128.132813zm177.886719 128.132813h-51.8125v-79.875h32.917969c4.199218 0 7.601562-3.402344 7.601562-7.601563v-59.371094c0-4.199219-3.402344-7.601562-7.601562-7.601562h-91.234375v-25.636719c0-3.109375-1.890625-5.902344-4.773438-7.058594-2.886719-1.15625-6.183593-.441406-8.328125 1.804688l-40.125 42h-39.03125v-68.808594h202.386719zm-125.339844-161.121094v14.273437c0 4.199219 3.40625 7.605469 7.605469 7.605469h91.234375v44.160156h-91.234375c-4.199219 0-7.605469 3.40625-7.605469 7.605469v14.273437l-41.992187-43.960937zm-105.039062-79.019532h258.371093v240.140626h-12.78125v-219.753907c0-4.199219-3.40625-7.605469-7.605468-7.605469h-217.59375c-4.199219 0-7.605469 3.40625-7.605469 7.605469v76.414063h-12.785156zm-75.550781 112.007813v128.132813h-43.046876v-128.132813zm0 0"/></svg>