<?xml version="1.0" encoding="iso-8859-1"?>
<!-- Generator: Adobe Illustrator 19.0.0, SVG Export Plug-In . SVG Version: 6.00 Build 0)  -->
<svg version="1.1" id="Layer_1" xmlns="http://www.w3.org/2000/svg" xmlns:xlink="http://www.w3.org/1999/xlink" x="0px" y="0px"
	 viewBox="0 0 512 512" style="enable-background:new 0 0 512 512;" xml:space="preserve">
<circle style="fill:#ACABB1;" cx="92.521" cy="330.315" r="31.05"/>
<path style="fill:#E0E0E2;" d="M92.516,243.37c41.809,0,76.81,29.666,85.084,69.051l11.593-3.347
	c8.887-2.566,13.548-12.233,10.147-20.836c-16.819-42.554-58.362-72.735-106.823-72.735c-20.817,0-40.355,5.572-57.207,15.301
	c-7.066,4.08-9.691,12.995-6.103,20.322l6.563,13.4C51.011,251.36,70.842,243.37,92.516,243.37z"/>
<path style="fill:#3E3D42;" d="M92.516,237.797C41.422,237.797,0,279.217,0,330.313s41.422,92.516,92.516,92.516
	s92.516-41.422,92.516-92.516C185.034,279.217,143.612,237.797,92.516,237.797z M92.516,394.963c-35.648,0-64.65-29.002-64.65-64.65
	s29.002-64.65,64.65-64.65s64.65,29.002,64.65,64.65S128.165,394.963,92.516,394.963z"/>
<path style="fill:#2D2D30;" d="M171.167,330.313c0-43.369-35.283-78.65-78.65-78.65s-78.65,35.283-78.65,78.65
	s35.283,78.65,78.65,78.65S171.167,373.681,171.167,330.313z M92.516,394.963c-35.648,0-64.65-29.002-64.65-64.65
	s29.002-64.65,64.65-64.65s64.65,29.002,64.65,64.65S128.165,394.963,92.516,394.963z"/>
<path style="fill:#57565C;" d="M169.267,196.044L169.267,196.044c-4.942-4.511-5.294-12.247-0.783-17.189l5.394-5.908
	c4.511-4.942,12.247-5.294,17.189-0.783l0,0c4.942,4.511,5.294,12.247,0.783,17.189l-5.394,5.908
	C181.943,200.204,174.209,200.557,169.267,196.044z"/>
<path style="fill:#3E3D42;" d="M180.984,187.045l5.394-5.908c2.149-2.355,5.031-3.654,7.993-3.895
	c-0.636-1.888-1.737-3.645-3.305-5.076c-4.942-4.511-12.676-4.16-17.189,0.783l-5.394,5.908c-4.511,4.942-4.16,12.676,0.783,17.189
	c2.588,2.362,5.939,3.378,9.194,3.113C177.094,195.095,177.904,190.42,180.984,187.045z"/>
<circle style="fill:#ACABB1;" cx="419.479" cy="330.315" r="31.05"/>
<polygon style="fill:#D8D7DA;" points="156.664,189.08 199.153,319.867 273.463,350.335 360.454,276.024 249.416,263.681 "/>
<path style="fill:#898890;" d="M270.19,357.766c-5.647,0-11.344-0.859-16.899-2.63l-34.906-11.134
	c-18.163-5.793-32.804-19.982-39.164-37.956l-42.965-121.421l21.018-7.437l42.964,121.42c4.048,11.438,13.364,20.468,24.923,24.155
	l34.906,11.134c12.551,4.003,26.34,0.238,35.114-9.597l48.365-54.21l16.635,14.841l-48.365,54.21
	C301.071,351.183,285.823,357.766,270.19,357.766z"/>
<g>
	<path style="fill:#C6C5CA;" d="M248.217,319.867c-2.885,0-5.767-1.113-7.95-3.332l-32.153-32.702
		c-4.653-4.733-10.865-7.555-17.491-7.949l-18.139-1.076c-6.146-0.365-10.832-5.642-10.468-11.787
		c0.366-6.146,5.687-10.826,11.786-10.467l18.14,1.076c12.148,0.721,23.537,5.897,32.068,14.573l32.153,32.703
		c4.316,4.39,4.256,11.447-0.134,15.763C253.86,318.803,251.038,319.867,248.217,319.867z"/>
	<circle style="fill:#C6C5CA;" cx="277.314" cy="296.7" r="43.233"/>
</g>
<path style="fill:#ACABB1;" d="M267.411,299.209c0-19.094,12.385-35.287,29.555-41.01c-5.899-3.017-12.575-4.731-19.657-4.731
	c-23.877,0-43.232,19.356-43.232,43.232c0,23.876,19.356,43.233,43.232,43.233c4.782,0,9.377-0.788,13.677-2.221
	C276.996,330.552,267.411,316.004,267.411,299.209z"/>
<path style="fill:#2D2D30;" d="M282.009,292.743l36.628,6.038c18.957,3.125,38.034-4.854,49.122-20.545l71.14-100.674l-64.746,5.945
	L282.009,292.743z"/>
<path style="fill:#1D1D1F;" d="M374.154,183.507l-92.146,109.236l36.628,6.038c1.095,0.18,2.191,0.32,3.286,0.427l58.703-74.86
	c2.806-3.579,6.545-6.306,10.811-7.885l27.053-10.016l20.41-28.884L374.154,183.507z"/>
<path style="fill:#3E3D42;" d="M419.484,237.797c-51.096,0-92.516,41.422-92.516,92.516c0,51.096,41.422,92.516,92.516,92.516
	c51.096,0,92.516-41.422,92.516-92.516C512,279.217,470.578,237.797,419.484,237.797z M419.483,394.963
	c-35.648,0-64.65-29.002-64.65-64.65s29.002-64.65,64.65-64.65s64.65,29.002,64.65,64.65S455.132,394.963,419.483,394.963z"/>
<path style="fill:#2D2D30;" d="M498.134,330.313c0-43.369-35.283-78.65-78.65-78.65s-78.65,35.283-78.65,78.65
	s35.283,78.65,78.65,78.65S498.134,373.681,498.134,330.313z M419.484,394.963c-35.648,0-64.65-29.002-64.65-64.65
	s29.002-64.65,64.65-64.65s64.65,29.002,64.65,64.65S455.132,394.963,419.484,394.963z"/>
<path style="fill:#D8D7DA;" d="M424.125,320.809L307.79,249.545c-4.548,5.198-9.796,11.229-14.849,17.047l119.538,73.226
	c5.249,3.216,12.111,1.568,15.327-3.682c0.588-0.961,1.014-1.977,1.285-3.014C430.297,328.497,428.412,323.436,424.125,320.809z"/>
<path style="fill:#C6C5CA;" d="M418.479,330.516l-118.175-72.392c-2.433,2.794-4.92,5.655-7.363,8.468l119.538,73.226
	c5.249,3.216,12.111,1.568,15.327-3.682c0.588-0.961,1.014-1.976,1.285-3.014c0.192-0.735,0.297-1.48,0.335-2.225
	C426.075,332.63,421.931,332.631,418.479,330.516z"/>
<path style="fill:#FF7956;" d="M153.222,156.064l86.457,89.996c8.813,9.175,23.179,10.085,33.081,2.097l82.748-66.751
	c7.34-5.921,16.143-9.752,25.479-11.086l84.822-12.124c5.29-0.756,7.191,6.739,2.179,8.595l-83.496,30.915
	c-7.732,2.863-14.517,7.813-19.604,14.3l-59.126,75.401c-6.55,8.353-16.577,13.232-27.192,13.232h-19.609
	c-8.049,0-15.734-3.347-21.217-9.239l-99.53-106.966L153.222,156.064z"/>
<path style="fill:#D8D7DA;" d="M92.521,341.463c-1.072,0-2.161-0.156-3.241-0.483c-5.892-1.787-9.218-8.012-7.431-13.902
	l64.147-211.45c1.786-5.892,8.014-9.217,13.902-7.431c5.892,1.787,9.218,8.012,7.431,13.902l-64.146,211.45
	C101.723,338.361,97.302,341.463,92.521,341.463z"/>
<path style="fill:#C6C5CA;" d="M90.851,335.949l64.147-211.45c1.655-5.462,7.129-8.71,12.61-7.734
	c-0.757-3.933-3.609-7.326-7.708-8.57c-5.89-1.786-12.117,1.539-13.902,7.431L81.85,327.077c-1.787,5.891,1.539,12.115,7.431,13.902
	c0.43,0.13,0.861,0.226,1.293,0.303C90.242,339.563,90.307,337.742,90.851,335.949z"/>
<path style="fill:#FFBCAB;" d="M382.355,170.126l-1.368,0.196c-9.337,1.334-18.139,5.164-25.479,11.086l-82.748,66.751
	c-9.902,7.987-24.267,7.076-33.081-2.097l-51.068-53.158l0,0l12.636,59.278l36.495,39.222c5.483,5.893,13.169,9.239,21.217,9.239
	h19.609c10.615,0,20.641-4.879,27.192-13.233l59.126-75.401c0.969-1.235,27.31-43.287,27.31-43.287L382.355,170.126z"/>
<circle style="fill:#C6C5CA;" cx="170.639" cy="112.978" r="23.807"/>
<circle style="fill:#ACABB1;" cx="179.447" cy="120.725" r="16.052"/>
<g>
</g>
<g>
</g>
<g>
</g>
<g>
</g>
<g>
</g>
<g>
</g>
<g>
</g>
<g>
</g>
<g>
</g>
<g>
</g>
<g>
</g>
<g>
</g>
<g>
</g>
<g>
</g>
<g>
</g>
</svg>
