<svg id="Capa_1" enable-background="new 0 0 512 512" height="100" viewBox="0 0 512 512" width="100" xmlns="http://www.w3.org/2000/svg"><g><g><path d="m299.764 365.299h-87.528c-26.575 8.593-45.801 33.527-45.801 62.963v76.236h179.13v-76.236c0-29.436-19.226-54.37-45.801-62.963z" fill="#bed8fb"/><path d="m299.764 365.299h-22.917c26.575 8.593 45.801 33.527 45.801 62.963v76.236h22.917v-76.236c0-29.436-19.226-54.37-45.801-62.963z" fill="#9dc6fb"/><path d="m282.275 504.498h-52.549l12.832-72.986h26.885z" fill="#dd636e"/><path d="m269.443 431.512h-26.885l-2.476 19.125 8.529 8.529c4.081 4.081 10.697 4.081 14.778 0l8.529-8.529z" fill="#da4a54"/><path d="m276.419 429.058-16.29 16.29c-2.28 2.28-5.977 2.28-8.258 0l-16.29-16.29 20.419-20.419z" fill="#dddaec"/><path d="m256 417.917 31.784-51.193h-63.568z" fill="#ffcbbe"/><path d="m191.732 376.236 41.579 55.276 22.689-13.595-31.784-51.193-12.325-1.306c-7.378 2.431-14.184 6.119-20.159 10.818z" fill="#f9f6f9"/><path d="m320.268 376.236c-5.975-4.699-12.781-8.387-20.159-10.818l-12.325 1.306-31.784 51.193 22.689 13.595z" fill="#f9f6f9"/><path d="m310.19 389.635 10.079-13.399c-5.975-4.699-12.781-8.387-20.159-10.818l-12.325 1.306-1.522 2.452c9.53 4.812 17.731 11.864 23.927 20.459z" fill="#dddaec"/><path d="m336.952 308.074c-.786 6.488-6.292 11.367-12.827 11.367h-136.25c-6.535 0-12.041-4.879-12.827-11.367l-8.148-67.266c-3.553-29.328 19.34-55.162 48.883-55.162h80.435c29.543 0 52.435 25.833 48.883 55.162z" fill="#365e7d"/><path d="m296.218 185.647h-21.191c29.543 0 52.435 25.833 48.883 55.162l-8.148 67.266c-.786 6.488-6.292 11.367-12.827 11.367h21.191c6.535 0 12.041-4.879 12.827-11.367l8.148-67.266c3.552-29.328-19.341-55.162-48.883-55.162z" fill="#2b4d66"/><path d="m256 383.456c-34.145 0-61.824-27.68-61.824-61.824v-51.278c0-1.68 1.428-2.993 3.105-2.876 28.465 1.977 59.702-1.406 75.84-12.649 1.072-.747 2.508-.679 3.499.171 9.747 8.353 20.971 14.04 38.052 12.583 1.691-.144 3.153 1.171 3.153 2.869v51.182c0 34.143-27.68 61.822-61.825 61.822z" fill="#ffddce"/><path d="m296.507 266.128v55.504c0 30.508-22.103 55.837-51.166 60.89 3.465.602 7.022.934 10.659.934 34.145 0 61.824-27.68 61.824-61.824v-51.18c0-1.7-1.463-3.014-3.157-2.87-6.917.589-12.872.003-18.16-1.454z" fill="#ffcbbe"/><path d="m173.173 47.016h-60.647c-1.335 0-2.418-1.083-2.418-2.418v-19.933c0-1.045-1.216-1.618-2.022-.953l-42.976 35.457c-2.444 2.016-2.444 5.76 0 7.777l42.975 35.457c.806.665 2.022.092 2.022-.953v-19.28c0-1.335 1.083-2.418 2.418-2.418h44.279v22.212h32.736v-38.58c.001-9.04-7.327-16.368-16.367-16.368z" fill="#b3e59f"/><g><path d="m173.173 47.016h-15.087c9.04 0 16.368 7.328 16.368 16.368v38.581h15.087v-38.581c0-9.04-7.328-16.368-16.368-16.368z" fill="#95d6a4"/></g><path d="m338.827 47.016h60.647c1.335 0 2.418-1.083 2.418-2.418v-19.933c0-1.045 1.216-1.618 2.022-.953l42.975 35.458c2.444 2.016 2.444 5.76 0 7.777l-42.975 35.457c-.806.665-2.022.092-2.022-.953v-19.281c0-1.335-1.083-2.418-2.418-2.418h-44.279v22.212h-32.736v-38.58c0-9.04 7.329-16.368 16.368-16.368z" fill="#b3e59f"/><g><path d="m354.395 47.016h-15.567c-9.04 0-16.368 7.328-16.368 16.368v38.581h15.567v-38.581c0-9.04 7.328-16.368 16.368-16.368z" fill="#95d6a4"/></g><path d="m295.638 52.972-36.166-43.834c-1.8-2.182-5.143-2.182-6.944 0l-36.165 43.834c-.549.665-.076 1.669.787 1.669h20.432c1.133 0 2.051.918 2.051 2.051v75.781h32.736v-75.782c0-1.133.918-2.051 2.051-2.051h20.432c.861 0 1.334-1.003.786-1.668z" fill="#dd636e"/><g fill="#da4a54"><path d="m255.318 56.691v75.781h17.05v-75.781c0-1.133.918-2.051 2.051-2.051h-17.05c-1.132 0-2.051.919-2.051 2.051z"/><path d="m295.638 52.972-36.166-43.834c-1.8-2.182-5.143-2.182-6.944 0l-5.053 6.125 31.112 37.709c.549.665.076 1.669-.787 1.669h17.05c.863-.001 1.336-1.004.788-1.669z"/></g><circle cx="438.72" cy="206.545" fill="#ecb780" r="65.781"/><path d="m438.72 140.765c-4.69 0-9.262.5-13.674 1.433 29.765 6.295 52.106 32.708 52.106 64.348 0 31.639-22.341 58.053-52.106 64.348 4.412.933 8.984 1.433 13.674 1.433 36.329 0 65.78-29.451 65.78-65.781s-29.451-65.781-65.78-65.781z" fill="#e29375"/><circle cx="73.281" cy="206.545" fill="#ecb780" r="65.781"/><path d="m73.281 140.765c-4.69 0-9.262.5-13.674 1.433 29.765 6.295 52.106 32.708 52.106 64.348 0 31.639-22.341 58.053-52.106 64.348 4.412.933 8.984 1.433 13.674 1.433 36.329 0 65.78-29.451 65.78-65.781s-29.451-65.781-65.78-65.781z" fill="#e29375"/><g><path d="m312.124 362.255c7.323-10.089 11.988-22.216 12.98-35.359 9.882-.473 18.093-8.005 19.293-17.919l8.148-67.266c1.951-16.108-3.102-32.312-13.862-44.455-10.762-12.144-26.24-19.108-42.466-19.108h-57.236l.783-1.118c2.375-3.393 1.55-8.069-1.844-10.445-3.393-2.375-8.07-1.551-10.445 1.844l-2.95 4.215-2.717-4.074c-2.298-3.446-6.954-4.377-10.4-2.08-3.446 2.298-4.378 6.954-2.08 10.4l1.022 1.533c-14.209 1.37-27.48 8.055-37.033 18.834-10.761 12.144-15.813 28.347-13.862 44.455l8.147 67.266c1.201 9.914 9.412 17.446 19.293 17.919.992 13.143 5.657 25.271 12.981 35.36-24.862 12.277-40.941 37.609-40.941 66.006v24.75c0 4.143 3.357 7.5 7.5 7.5s7.5-3.357 7.5-7.5v-24.75c0-15.758 6.22-30.329 16.685-41.028l36.698 48.787c1.464 1.946 3.71 2.992 5.998 2.992.104 0 .208-.016.312-.021l-10.199 58.006h-49.494v-14c0-4.143-3.357-7.5-7.5-7.5s-7.5 3.357-7.5 7.5v21.5c0 4.143 3.357 7.5 7.5 7.5h179.13c4.143 0 7.5-3.357 7.5-7.5v-76.236c0-28.399-16.079-53.731-40.941-66.008zm-63.759 68.98 7.635-4.575 7.636 4.575-7.636 7.635zm-46.689-109.603v-46.384c13.774.662 27.253.076 39.258-1.721 13.882-2.078 25.125-5.647 33.485-10.622 8.049 6.37 19.145 12.64 35.905 12.397v46.329c0 29.954-24.37 54.324-54.324 54.324s-54.324-24.369-54.324-54.323zm54.324 69.324c2.784 0 5.525-.184 8.225-.505l-8.225 13.247-8.224-13.247c2.699.321 5.44.505 8.224.505zm20.754 30.652-10.363-6.209 19.346-31.158c5.714-2.725 10.989-6.218 15.714-10.331 2.815 1.142 5.537 2.485 8.137 4.048zm-94.261-114.435-8.147-67.267c-1.436-11.85 2.282-23.769 10.198-32.702s19.303-14.057 31.239-14.057h80.435c11.937 0 23.323 5.124 31.239 14.057 7.916 8.934 11.634 20.853 10.198 32.702l-8.148 67.266c-.28 2.309-1.996 4.122-4.183 4.621v-41.343c0-2.896-1.224-5.679-3.356-7.637-2.141-1.966-5.035-2.947-7.933-2.704-12.873 1.094-22.299-2.033-32.537-10.808-3.58-3.064-8.788-3.327-12.665-.627-12.888 8.979-40.763 13.431-71.034 11.32-2.864-.193-5.724.812-7.826 2.772-2.095 1.955-3.297 4.721-3.297 7.587v41.438c-2.186-.497-3.903-2.31-4.183-4.618zm19.92 70.786c2.6-1.563 5.321-2.907 8.136-4.048 4.725 4.113 10.001 7.606 15.715 10.332l19.345 31.157-10.362 6.209zm36.246 119.039 8.116-46.159c2.495 2.396 5.756 3.72 9.225 3.72 3.411 0 6.618-1.283 9.095-3.602 2.711 14.39 6.131 30.691 8.526 46.041zm99.406 0h-49.277c-3.044-20.295-7.797-41.469-10.614-58.019.17.012.34.034.51.034 2.287-.001 4.534-1.046 5.998-2.992l36.698-48.786c10.465 10.699 16.685 25.27 16.685 41.027z"/><path d="m299.147 454.128c-4.143 0-7.5 3.357-7.5 7.5s3.357 7.5 7.5 7.5h23.501c4.143 0 7.5-3.357 7.5-7.5s-3.357-7.5-7.5-7.5z"/><path d="m230.071 302.071c-4.143 0-7.5 3.357-7.5 7.5v3.461c0 4.143 3.357 7.5 7.5 7.5s7.5-3.357 7.5-7.5v-3.461c0-4.142-3.357-7.5-7.5-7.5z"/><path d="m281.929 320.532c4.143 0 7.5-3.357 7.5-7.5v-3.461c0-4.143-3.357-7.5-7.5-7.5s-7.5 3.357-7.5 7.5v3.461c0 4.143 3.357 7.5 7.5 7.5z"/><path d="m271.324 348.486c3.294-2.511 3.93-7.217 1.42-10.512-2.51-3.294-7.215-3.932-10.512-1.42-3.576 2.727-7.107 3.738-12.714-.182-3.396-2.373-8.07-1.544-10.444 1.851-2.373 3.396-1.544 8.071 1.851 10.444 5.029 3.515 10.217 5.271 15.323 5.271 5.195 0 10.306-1.818 15.076-5.452z"/><path d="m217.149 62.141h14.982v70.332c0 4.143 3.357 7.5 7.5 7.5h32.736c4.143 0 7.5-3.357 7.5-7.5v-70.332h14.982c3.282 0 6.308-1.919 7.707-4.888 1.399-2.97.954-6.523-1.136-9.055h.001l-36.164-43.833c-2.287-2.772-5.66-4.363-9.255-4.363-.001 0-.001 0-.002 0-3.594 0-6.968 1.59-9.257 4.362l-36.164 43.834c-2.09 2.531-2.535 6.086-1.136 9.055 1.399 2.97 4.424 4.888 7.706 4.888zm38.851-45.426 25.104 30.426h-6.685c-5.267 0-9.551 4.284-9.551 9.551v68.281h-17.736v-68.282c0-5.267-4.284-9.551-9.551-9.551h-6.684z"/><path d="m394.393 101.45c0 7.408 8.638 11.4 14.296 6.738l42.975-35.458c2.897-2.39 4.56-5.915 4.56-9.672.001-3.757-1.66-7.282-4.558-9.674-.001 0-.001-.001-.001-.001l-42.975-35.456c-2.596-2.143-6.24-2.601-9.285-1.165-3.044 1.435-5.012 4.537-5.012 7.902v14.851h-55.565c-13.161 0-23.868 10.707-23.868 23.868v38.581c0 4.143 3.357 7.5 7.5 7.5h32.736c4.143 0 7.5-3.357 7.5-7.5v-14.712h31.697zm-39.198-29.198c-4.143 0-7.5 3.357-7.5 7.5v14.713h-17.736v-31.081c0-4.89 3.979-8.868 8.868-8.868h60.647c5.469 0 9.918-4.449 9.918-9.918v-6.644l30.426 25.104-30.426 25.104v-5.992c0-5.469-4.449-9.918-9.918-9.918z"/><path d="m73.281 133.265c-40.407 0-73.281 32.873-73.281 73.28s32.874 73.281 73.281 73.281 73.28-32.874 73.28-73.281-32.873-73.28-73.28-73.28zm0 131.561c-32.136 0-58.281-26.144-58.281-58.281 0-32.136 26.145-58.28 58.281-58.28s58.28 26.145 58.28 58.28c.001 32.137-26.144 58.281-58.28 58.281z"/><path d="m438.72 133.265c-40.407 0-73.28 32.873-73.28 73.28s32.873 73.281 73.28 73.281c9.774 0 19.277-1.901 28.247-5.651 3.822-1.598 5.625-5.991 4.027-9.812s-5.992-5.62-9.812-4.027c-7.128 2.98-14.685 4.491-22.462 4.491-32.136 0-58.28-26.145-58.28-58.281s26.145-58.28 58.28-58.28 58.28 26.143 58.28 58.279c0 14.03-5.072 27.595-14.283 38.195-2.717 3.126-2.385 7.863.742 10.58 3.126 2.719 7.864 2.387 10.58-.742 11.582-13.329 17.961-30.388 17.961-48.033 0-40.407-32.873-73.28-73.28-73.28z"/><path d="m197.041 101.965v-38.581c0-13.161-10.707-23.868-23.868-23.868h-8.887c-4.143 0-7.5 3.357-7.5 7.5s3.357 7.5 7.5 7.5h8.887c4.89 0 8.868 3.979 8.868 8.868v31.081h-17.736v-14.713c0-4.143-3.357-7.5-7.5-7.5h-44.279c-5.469 0-9.918 4.449-9.918 9.918v5.99l-30.425-25.102 30.425-25.103v6.643c0 5.469 4.449 9.918 9.918 9.918h21.773c4.143 0 7.5-3.357 7.5-7.5s-3.357-7.5-7.5-7.5h-16.691v-14.851c0-3.366-1.967-6.468-5.012-7.902-3.047-1.436-6.688-.978-9.283 1.164l-42.975 35.457c-2.899 2.392-4.562 5.918-4.561 9.675 0 3.758 1.663 7.283 4.56 9.672l42.975 35.457c5.64 4.656 14.296.686 14.296-6.737v-14.199h31.697v14.713c0 4.143 3.357 7.5 7.5 7.5h32.736c4.143 0 7.5-3.358 7.5-7.5z"/></g></g><path d="m447.391 198.921c-5.369-1.897-11.292-4.178-14.511-6.704-.485-.38-.842-1.624-.549-3.179.146-.777.823-3.375 3.381-4.146 5.37-1.625 9.954 2.937 10.253 3.241 2.906 3.081 7.756 3.25 10.869.365 3.131-2.899 3.318-7.788.417-10.918-2.217-2.393-6.17-5.401-11.18-7.119v-1.802c0-4.268-3.459-7.726-7.726-7.726-4.268 0-7.726 3.458-7.726 7.726v1.654c-6.922 2.346-12.06 8.358-13.474 15.864-1.35 7.168 1.025 14.142 6.197 18.198 4.965 3.896 12.017 6.684 18.9 9.116 4.544 1.606 5.004 4.883 4.59 7.349-.584 3.471-3.504 7.223-8.537 7.256-5.66.022-7.11-.193-11.297-2.933-3.571-2.336-8.359-1.336-10.695 2.236-2.336 3.57-1.335 8.359 2.236 10.695 4.594 3.006 8.099 4.406 12.081 5.02v1.318c0 4.268 3.459 7.727 7.726 7.727 4.268 0 7.726-3.459 7.726-7.727v-2.149c8.952-3.021 14.674-11.001 15.998-18.882 1.83-10.891-4.069-20.73-14.679-24.48z"/><path d="m81.952 198.921c-5.369-1.897-11.292-4.178-14.511-6.704-.486-.38-.843-1.624-.549-3.18.146-.777.823-3.374 3.381-4.145 5.38-1.626 9.972 2.954 10.255 3.243 2.904 3.079 7.754 3.246 10.867.363 3.131-2.9 3.317-7.789.417-10.918-2.217-2.394-6.17-5.401-11.181-7.12v-1.801c0-4.268-3.459-7.726-7.726-7.726s-7.726 3.458-7.726 7.726v1.655c-6.922 2.346-12.059 8.357-13.473 15.862-1.35 7.168 1.025 14.142 6.197 18.199 4.965 3.896 12.017 6.684 18.899 9.116 4.544 1.606 5.004 4.883 4.589 7.349-.583 3.471-3.504 7.223-8.537 7.256-5.653.022-7.11-.193-11.295-2.933-3.571-2.336-8.36-1.336-10.696 2.235-2.336 3.57-1.335 8.359 2.235 10.696 4.594 3.006 8.099 4.406 12.081 5.02v1.318c0 4.268 3.459 7.727 7.726 7.727s7.726-3.459 7.726-7.727v-2.149c8.952-3.02 14.674-11.001 15.999-18.881 1.831-10.892-4.068-20.731-14.678-24.481z"/></g></svg>