<svg id="filled_outline" height="512" viewBox="0 0 512 512" width="512" xmlns="http://www.w3.org/2000/svg" data-name="filled outline"><path d="m256 104h160v160h-160z" fill="#4356e6"/><path d="m288 136h96v104h-96z" fill="#89a8f5"/><path d="m296 408h80v80h-80z" fill="#4356e6"/><path d="m304 416h64v40h-64z" fill="#96cffa"/><path d="m216 416h64v72h-64z" fill="#4356e6"/><path d="m392 416h64v72h-64z" fill="#4356e6"/><path d="m192 376h288v40h-288z" fill="#5771e5"/><path d="m448 416h32v72h-32z" fill="#6e8beb"/><path d="m232 384v-128l208-96v224z" fill="#5771e5"/><path d="m288 40h96v64h-96z" fill="#5771e5"/><path d="m368 416h32v72h-32z" fill="#6e8beb"/><path d="m272 416h32v72h-32z" fill="#6e8beb"/><path d="m63.99652 320a40 40 0 0 0 -40 40v55.16719a48.80974 48.80974 0 0 0 24.00348 42.05825v38.77456h128v-8h39.99652a48 48 0 0 0 48-48v-80a40 40 0 0 0 -40-40z" fill="#ed6445"/><path d="m184 320v40l-4.16 6.93-19.84 33.07h-32l-19.84-33.07-4.16-6.93v-40z" fill="#fcedc0"/><path d="m151.997 360 8 40h-31.997l7.997-40z" fill="#f7c04a"/><path d="m135.997 360-8-16 16-16 16 16-8 16z" fill="#f5a431"/><path d="m111.99652 240v56a32 32 0 0 0 32 32h.00007a32 32 0 0 0 32-32v-56z" fill="#ffceb6"/><path d="m135.99652 256a28.94426 28.94426 0 0 0 25.88848 16 30.11143 30.11143 0 0 0 30.11143-30.11143v-17.88857h-55.97537a30.77006 30.77006 0 0 0 -29.85135 23.30723 30.77 30.77 0 0 0 .6603 17.19318l5.16651 15.49959z" fill="#b36f42"/><path d="m159.99652 440h56.00348v-16a24 24 0 0 0 -24-24h-32z" fill="#ffceb6"/><path d="m416 440h16v24h-16z"/><path d="m240 261.11865 192-88.61523v195.49658h-144v16h184v24h-184v16h8v56h-16v16h200a7.99977 7.99977 0 0 0 8-8v-112a7.99977 7.99977 0 0 0 -8-8h-32v-208a8 8 0 0 0 -11.35254-7.26367l-12.64746 5.83728v-54.57361a7.99977 7.99977 0 0 0 -8-8h-24v-56a7.99977 7.99977 0 0 0 -8-8h-40v-16h-16v16h-40a7.99977 7.99977 0 0 0 -8 8v56h-24a7.99977 7.99977 0 0 0 -8 8v135.80438l-19.35254 8.932a8 8 0 0 0 -4.64746 7.26362v40h16zm200 162.88135v56h-32v-56zm-80 24h-16v-24h16zm-32-24v24h-16v-24zm-16 40h48v16h-48zm64 16v-56h16v56zm80 0v-56h16v56zm-128-288v-16h16v16zm32-16h16v4.72748l-16 7.38458zm16-16h-16v-16h16zm-32 0h-16v-16h16zm-32 0h-16v-16h16zm-16 16h16v16h-16zm0 32h16v2.26593l-16 7.38458zm0-160h80v48h-80zm-32 64h144v53.95825l-16 7.38458v-37.34283a7.99977 7.99977 0 0 0 -8-8h-96a7.99977 7.99977 0 0 0 -8 8v89.03516l-16 7.38464z"/><path d="m264 272h24v16h-24z"/><path d="m304 272h24v16h-24z"/><path d="m344 272h24v16h-24z"/><path d="m384 272h24v16h-24z"/><path d="m304 240h24v16h-24z"/><path d="m344 240h24v16h-24z"/><path d="m384 240h24v16h-24z"/><path d="m384 208h24v16h-24z"/><path d="m264 304h24v16h-24z"/><path d="m304 304h24v16h-24z"/><path d="m344 304h24v16h-24z"/><path d="m384 304h24v16h-24z"/><path d="m304 336h24v16h-24z"/><path d="m344 336h24v16h-24z"/><path d="m384 336h24v16h-24z"/><path d="m312 64h16v16h-16z"/><path d="m344 64h16v16h-16z"/><path d="m40 461.51508v34.48492h16v-26.54456a56.64141 56.64141 0 0 0 16.82959 2.54456c1.51611 0 3.02856-.06628 4.53552-.18689a150.3822 150.3822 0 0 0 81.89807 24.18689h56.7334a56.06353 56.06353 0 0 0 56-56v-80a48.05436 48.05436 0 0 0 -48-48h-43.34991a39.76011 39.76011 0 0 0 3.34991-16v-23.09961a38.08034 38.08034 0 0 0 16-31.01172v-17.88867a7.99977 7.99977 0 0 0 -8-8h-55.97558a38.76989 38.76989 0 0 0 -36.78028 51.03027l4.75586 14.26758v14.70215a39.76 39.76 0 0 0 3.34992 16h-43.34992a48.05437 48.05437 0 0 0 -48 48v55.167a56.78909 56.78909 0 0 0 24.00342 46.34808zm215.99658-101.51508v80a40.04521 40.04521 0 0 1 -40 40h-56.7334a134.41639 134.41639 0 0 1 -59.16345-13.67883l61.07117-18.32117h46.82568a7.99977 7.99977 0 0 0 8-8v-72h-16v28.305a31.79288 31.79288 0 0 0 -16-4.305h-9.867l16.73028-27.88379a8.00144 8.00144 0 0 0 1.14014-4.11621v-32h31.99658a32.036 32.036 0 0 1 32 32zm-136-32v-.02185a40.079 40.079 0 0 0 6.34412 3.9024l-14.3407 11.47351v-15.35406zm20.94409 24-4.03906-8.07806 7.09546-5.67682 7.09509 5.67553-4.03967 8.07935zm19.43872 9.12256 3.49042-6.98084 9.673 7.73774-9.759 16.26489zm15.62061-17.76642-14.34644-11.4762a40.07141 40.07141 0 0 0 6.343-3.90179v.02185h8.00344zm-51.87537 10.78821 3.48914 6.97821-3.40271 17.01324-9.75406-16.25671zm18.43042 13.85565h2.88306l4.8 24h-12.483zm25.44153 40h16a16.01833 16.01833 0 0 1 16 16v8h-32zm0-112a24.0274 24.0274 0 0 1 -23.99811 23.99994h-.00447a24.02741 24.02741 0 0 1 -23.99742-23.99994v-12.68652l14.94678-14.94678a36.733 36.733 0 0 0 26.94189 11.6333 38.20414 38.20414 0 0 0 6.11133-.4964zm-54.06543-46.75244a22.73633 22.73633 0 0 1 22.08985-17.24756h47.97558v9.88867a22.13617 22.13617 0 0 1 -22.11133 22.11133 20.83093 20.83093 0 0 1 -18.73339-11.57764 8 8 0 0 0 -12.812-2.0791l-14.84716 14.84668-1.07325-3.21924a22.73325 22.73325 0 0 1 -.4883-12.72314zm-81.93457 110.75244a32.036 32.036 0 0 1 32-32h32.00342v32a8.00144 8.00144 0 0 0 1.14014 4.11621l16.73028 27.88379h-25.87384v-24h-16v32a7.99977 7.99977 0 0 0 8 8h72v26.04773l-67.4341 20.2301a40.83241 40.83241 0 0 1 -52.5659-39.11083z"/></svg>