<?xml version="1.0" encoding="iso-8859-1"?>
<!-- Generator: Adobe Illustrator 19.0.0, SVG Export Plug-In . SVG Version: 6.00 Build 0)  -->
<svg version="1.1" id="Layer_1" xmlns="http://www.w3.org/2000/svg" xmlns:xlink="http://www.w3.org/1999/xlink" x="0px" y="0px" height="100" width="100"
	 viewBox="0 0 511.999 511.999" style="enable-background:new 0 0 511.999 511.999;" xml:space="preserve">
<path style="fill:#E2E7F2;" d="M480.452,456.403H31.548c-13.282,0-24.048-10.767-24.048-24.048V111.71
	c0-13.282,10.767-24.048,24.048-24.048h448.903c13.282,0,24.048,10.767,24.048,24.048v320.645
	C504.5,445.635,493.733,456.403,480.452,456.403z"/>
<path style="fill:#B4E66E;" d="M480.452,87.661H31.548C18.267,87.661,7.5,98.428,7.5,111.71v24.048h497V111.71
	C504.5,98.428,493.733,87.661,480.452,87.661z"/>
<g>
	<path style="fill:#A0D755;" d="M63.613,127.742h16.032c17.709,0,32.065-14.356,32.065-32.065v-8.016H31.548v8.016
		C31.548,113.386,45.904,127.742,63.613,127.742z"/>
	<path style="fill:#A0D755;" d="M432.355,127.742h16.032c17.709,0,32.065-14.356,32.065-32.065v-8.016H400.29v8.016
		C400.29,113.386,414.646,127.742,432.355,127.742z"/>
</g>
<path style="fill:#AFB9D2;" d="M79.645,103.694H63.613c-4.427,0-8.016-3.589-8.016-8.016V63.613c0-4.427,3.589-8.016,8.016-8.016
	h16.032c4.427,0,8.016,3.589,8.016,8.016v32.065C87.661,100.105,84.072,103.694,79.645,103.694z"/>
<path style="fill:#C7CFE2;" d="M87.661,79.645H55.597V63.613c0-4.427,3.589-8.016,8.016-8.016h16.032
	c4.427,0,8.016,3.589,8.016,8.016C87.661,63.613,87.661,79.645,87.661,79.645z"/>
<path style="fill:#AFB9D2;" d="M448.387,103.694h-16.032c-4.427,0-8.016-3.589-8.016-8.016V63.613c0-4.427,3.589-8.016,8.016-8.016
	h16.032c4.427,0,8.016,3.589,8.016,8.016v32.065C456.403,100.105,452.814,103.694,448.387,103.694z"/>
<path style="fill:#C7CFE2;" d="M456.403,79.645h-32.065V63.613c0-4.427,3.589-8.016,8.016-8.016h16.032
	c4.427,0,8.016,3.589,8.016,8.016v16.032H456.403z"/>
<rect x="7.5" y="135.76" style="fill:#D5DCED;" width="497" height="24.05"/>
<path d="M480.452,80.161h-16.548V63.613c0-8.556-6.96-15.517-15.516-15.517h-16.032c-8.556,0-15.516,6.961-15.516,15.517v16.548
	H95.161V63.613c0-8.556-6.96-15.517-15.516-15.517H63.613c-8.556,0-15.516,6.961-15.516,15.517v16.548H31.548
	C14.152,80.161,0,94.313,0,111.71v320.645c0,17.396,14.152,31.549,31.548,31.549h448.903c17.396,0,31.548-14.152,31.548-31.549
	V111.71C512,94.313,497.848,80.161,480.452,80.161z M432.355,63.097h16.032c0.285,0,0.516,0.231,0.516,0.517v32.064
	c0,0.284-0.231,0.516-0.516,0.516h-16.032c-0.285,0-0.516-0.231-0.516-0.516V63.613C431.839,63.328,432.07,63.097,432.355,63.097z
	 M63.613,63.097h16.032c0.285,0,0.516,0.231,0.516,0.517v32.064c0,0.284-0.231,0.516-0.516,0.516H63.613
	c-0.285,0-0.516-0.231-0.516-0.516V63.613C63.097,63.328,63.328,63.097,63.613,63.097z M497,432.354
	c0,9.125-7.423,16.549-16.548,16.549H31.548c-9.125,0-16.548-7.424-16.548-16.549V111.71c0-9.125,7.423-16.549,16.548-16.549h16.548
	v0.517c0,8.556,6.96,15.516,15.516,15.516h16.032c8.556,0,15.516-6.96,15.516-15.516v-0.517h321.678v0.517
	c0,8.556,6.96,15.516,15.516,15.516h16.032c8.556,0,15.516-6.96,15.516-15.516v-0.517h16.548c9.125,0,16.548,7.424,16.548,16.549
	v320.644H497z"/>
<path d="M472.436,128.258H39.564c-4.142,0-7.5,3.357-7.5,7.5s3.358,7.5,7.5,7.5h432.871c4.142,0,7.5-3.357,7.5-7.5
	S476.578,128.258,472.436,128.258z"/>
<path d="M63.613,207.387h48.097c4.142,0,7.5-3.357,7.5-7.5s-3.358-7.5-7.5-7.5H63.613c-4.142,0-7.5,3.357-7.5,7.5
	S59.471,207.387,63.613,207.387z"/>
<path d="M223.936,207.387c4.142,0,7.5-3.357,7.5-7.5s-3.358-7.5-7.5-7.5h-48.097c-4.142,0-7.5,3.357-7.5,7.5s3.358,7.5,7.5,7.5
	H223.936z"/>
<path d="M448.387,207.387c4.142,0,7.5-3.357,7.5-7.5s-3.358-7.5-7.5-7.5H400.29c-4.142,0-7.5,3.357-7.5,7.5s3.358,7.5,7.5,7.5
	H448.387z"/>
<path d="M63.613,271.517h48.097c4.142,0,7.5-3.357,7.5-7.5s-3.358-7.5-7.5-7.5H63.613c-4.142,0-7.5,3.357-7.5,7.5
	S59.471,271.517,63.613,271.517z"/>
<path d="M336.161,271.517c4.142,0,7.5-3.357,7.5-7.5s-3.358-7.5-7.5-7.5h-48.097c-4.142,0-7.5,3.357-7.5,7.5s3.358,7.5,7.5,7.5
	H336.161z"/>
<path d="M63.613,335.646h48.097c4.142,0,7.5-3.357,7.5-7.5s-3.358-7.5-7.5-7.5H63.613c-4.142,0-7.5,3.357-7.5,7.5
	S59.471,335.646,63.613,335.646z"/>
<path d="M223.936,320.646h-48.097c-4.142,0-7.5,3.357-7.5,7.5s3.358,7.5,7.5,7.5h48.097c4.142,0,7.5-3.357,7.5-7.5
	S228.078,320.646,223.936,320.646z"/>
<path d="M448.387,320.646H400.29c-4.142,0-7.5,3.357-7.5,7.5s3.358,7.5,7.5,7.5h48.097c4.142,0,7.5-3.357,7.5-7.5
	S452.529,320.646,448.387,320.646z"/>
<path d="M223.936,384.773h-48.097c-4.142,0-7.5,3.357-7.5,7.5s3.358,7.5,7.5,7.5h48.097c4.142,0,7.5-3.357,7.5-7.5
	S228.078,384.773,223.936,384.773z"/>
<path d="M336.161,384.773h-48.097c-4.142,0-7.5,3.357-7.5,7.5s3.358,7.5,7.5,7.5h48.097c4.142,0,7.5-3.357,7.5-7.5
	S340.303,384.773,336.161,384.773z"/>
<path d="M448.387,384.773H400.29c-4.142,0-7.5,3.357-7.5,7.5s3.358,7.5,7.5,7.5h48.097c4.142,0,7.5-3.357,7.5-7.5
	S452.529,384.773,448.387,384.773z"/>
<path d="M218.632,242.68l-26.761,26.763l-10.729-10.729c-2.929-2.928-7.678-2.928-10.606,0c-2.929,2.93-2.929,7.678,0,10.607
	l16.032,16.032c1.406,1.406,3.314,2.196,5.303,2.196s3.897-0.79,5.303-2.197l32.064-32.064c2.929-2.93,2.929-7.678,0-10.607
	C226.31,239.752,221.561,239.752,218.632,242.68z"/>
<path d="M443.084,242.68l-26.761,26.763l-10.729-10.729c-2.929-2.928-7.678-2.928-10.606,0c-2.929,2.93-2.929,7.678,0,10.607
	l16.032,16.032c1.406,1.406,3.314,2.196,5.303,2.196s3.897-0.79,5.303-2.197l32.064-32.064c2.929-2.93,2.929-7.678,0-10.607
	C450.762,239.752,446.013,239.752,443.084,242.68z"/>
<path d="M330.858,306.81l-26.761,26.762l-10.729-10.729c-2.929-2.928-7.678-2.928-10.606,0c-2.929,2.93-2.929,7.678,0,10.607
	l16.032,16.032c1.464,1.464,3.384,2.196,5.303,2.196s3.839-0.732,5.303-2.196l32.064-32.064c2.929-2.93,2.929-7.678,0-10.607
	C338.536,303.882,333.787,303.882,330.858,306.81z"/>
<path d="M106.406,370.938L79.645,397.7l-10.729-10.729c-2.929-2.928-7.678-2.928-10.606,0c-2.929,2.93-2.929,7.678,0,10.607
	l16.032,16.032c1.464,1.464,3.384,2.196,5.303,2.196s3.839-0.732,5.303-2.196l32.064-32.064c2.929-2.93,2.929-7.678,0-10.607
	C114.084,368.01,109.335,368.01,106.406,370.938z"/>
<path d="M330.858,178.551l-26.761,26.762l-10.729-10.729c-2.929-2.928-7.678-2.928-10.606,0c-2.929,2.93-2.929,7.678,0,10.607
	l16.032,16.032c1.464,1.464,3.384,2.196,5.303,2.196s3.839-0.732,5.303-2.196l32.064-32.064c2.929-2.93,2.929-7.678,0-10.607
	C338.536,175.623,333.787,175.623,330.858,178.551z"/>
<g>
</g>
<g>
</g>
<g>
</g>
<g>
</g>
<g>
</g>
<g>
</g>
<g>
</g>
<g>
</g>
<g>
</g>
<g>
</g>
<g>
</g>
<g>
</g>
<g>
</g>
<g>
</g>
<g>
</g>
</svg>
