<?xml version="1.0" encoding="iso-8859-1"?>
<!-- Generator: Adobe Illustrator 19.0.0, SVG Export Plug-In . SVG Version: 6.00 Build 0)  -->
<svg xmlns="http://www.w3.org/2000/svg" xmlns:xlink="http://www.w3.org/1999/xlink" version="1.1" id="Layer_1" height="100" width="100" viewBox="0 0 512 512" style="enable-background:new 0 0 512 512;" xml:space="preserve">
<path style="fill:#68B9D8;" d="M108.978,192.464c-0.068-0.002-0.136-0.002-0.204,0C49.813,193.275,0,241.862,0,298.562v32.739  c0,4.143,3.34,7.5,7.459,7.5h202.834c4.12,0,7.459-3.357,7.459-7.5v-32.739C217.753,241.862,167.94,193.275,108.978,192.464z"/>
<path style="fill:#3695B2;" d="M108.978,192.464c-0.068-0.002-0.136-0.002-0.204,0c-4.501,0.062-8.948,0.405-13.324,1.007  c52.951,7.273,95.45,52.719,95.45,105.091v32.739c0,4.143-3.34,7.5-7.459,7.5h26.853c4.12,0,7.459-3.357,7.459-7.5v-32.739  C217.753,241.862,167.94,193.275,108.978,192.464z"/>
<path style="fill:#68B9D8;" d="M403.226,192.464c-0.068-0.002-0.136-0.002-0.204,0c-58.962,0.811-108.774,49.397-108.774,106.098  v32.739c0,4.143,3.34,7.5,7.459,7.5h202.834c4.119,0,7.459-3.357,7.459-7.5v-32.739C512,241.862,462.187,193.275,403.226,192.464z"/>
<path style="fill:#3695B2;" d="M403.226,192.464c-0.068-0.002-0.136-0.002-0.204,0c-4.551,0.063-9.047,0.412-13.47,1.025  c52.884,7.336,95.304,52.749,95.304,105.072V331.3c0,4.143-3.34,7.5-7.459,7.5h27.144c4.119,0,7.459-3.357,7.459-7.5v-32.739  C512,241.862,462.187,193.275,403.226,192.464z"/>
<path style="fill:#F2464F;" d="M142.195,286.518l-13.878-60.573c-0.802-3.5-3.901-5.98-7.473-5.98H96.908  c-3.572,0-6.671,2.48-7.473,5.98l-13.878,60.573c-0.621,2.708,0.257,5.543,2.296,7.418l25.846,23.785  c1.465,1.348,3.321,2.023,5.177,2.023s3.712-0.675,5.177-2.023l25.846-23.785C141.938,292.06,142.815,289.225,142.195,286.518z"/>
<g>
	<path style="fill:#D3333C;" d="M139.899,293.936c2.039-1.876,2.916-4.711,2.296-7.418l-13.218-57.691h-20.101h-3.277l13.499,58.92   L95.113,309.82l8.586,7.901c1.465,1.348,3.321,2.023,5.177,2.023s3.712-0.675,5.177-2.023L139.899,293.936z"/>
	<path style="fill:#D3333C;" d="M128.858,228.827l14.994-30.137c-11.002-3.866-22.743-6.059-34.873-6.225   c-0.068-0.002-0.136-0.002-0.204,0c-12.306,0.169-24.21,2.426-35.349,6.397l15.412,29.966h40.02V228.827z"/>
</g>
<path style="fill:#AF273B;" d="M124.573,193.828L105.6,228.827h3.277h19.982l14.994-30.137  C137.642,196.508,131.191,194.881,124.573,193.828z"/>
<path style="fill:#F2464F;" d="M436.373,286.483l-13.849-60.446c-0.8-3.493-3.892-5.967-7.457-5.967h-23.886  c-3.565,0-6.657,2.475-7.457,5.967l-13.849,60.446c-0.619,2.702,0.256,5.53,2.291,7.403l25.791,23.735  c1.462,1.346,3.314,2.019,5.166,2.019s3.704-0.673,5.166-2.019l25.792-23.735C436.117,292.014,436.992,289.185,436.373,286.483z"/>
<g>
	<path style="fill:#D3333C;" d="M397.957,317.62c1.462,1.346,3.314,2.019,5.166,2.019s3.704-0.673,5.166-2.019l25.792-23.735   c2.034-1.872,2.91-4.701,2.291-7.403l-13.21-57.656h-20.039h-3.277l13.499,58.92l-23.925,22.018L397.957,317.62z"/>
	<path style="fill:#D3333C;" d="M423.156,228.827l15.365-29.985c-11.123-3.959-23.009-6.209-35.295-6.377   c-0.068-0.002-0.136-0.002-0.204,0c-12.295,0.169-24.19,2.422-35.321,6.387l15.388,29.976L423.156,228.827L423.156,228.827z"/>
</g>
<path style="fill:#AF273B;" d="M418.148,193.721l-18.301,35.106h3.277h20.032l15.365-29.985  C431.971,196.511,425.152,194.791,418.148,193.721z"/>
<path style="fill:#FFC89F;" d="M403.124,53.143c-30.838,0-55.927,25.227-55.927,56.233v41.937c0,31.007,25.088,56.233,55.927,56.233  c30.838,0,55.927-25.227,55.927-56.233v-41.937C459.051,78.37,433.962,53.143,403.124,53.143z"/>
<path style="fill:#F7B081;" d="M403.124,53.143c-4.618,0-9.103,0.577-13.399,1.643c24.387,6.053,42.528,28.227,42.528,54.59v41.937  c0,26.363-18.141,48.537-42.528,54.59c4.295,1.066,8.781,1.643,13.399,1.643c30.838,0,55.927-25.227,55.927-56.233v-41.937  C459.051,78.37,433.962,53.143,403.124,53.143z"/>
<path d="M459.051,130.339v-20.962c0-31.007-25.089-56.233-55.927-56.233s-55.927,25.227-55.927,56.233v20.968h7.459  c42.363,0,57.796-28.762,57.796-28.762s10.788,28.622,39.14,28.755h7.459V130.339z"/>
<path style="fill:#68B9D8;" d="M256.102,312.52c-0.068-0.002-0.136-0.002-0.204,0c-58.962,0.81-108.774,49.397-108.774,106.098  v32.739c0,4.143,3.34,7.5,7.459,7.5h202.834c4.119,0,7.459-3.357,7.459-7.5v-32.739C364.876,361.917,315.064,313.331,256.102,312.52  z"/>
<path style="fill:#3695B2;" d="M256.102,312.52c-0.068-0.002-0.136-0.002-0.204,0c-4.621,0.064-9.186,0.421-13.676,1.052  c52.788,7.425,95.098,52.789,95.098,105.045v32.739c0,4.143-3.34,7.5-7.459,7.5h27.556c4.119,0,7.459-3.357,7.459-7.5v-32.739  C364.876,361.917,315.064,313.331,256.102,312.52z"/>
<path style="fill:#F2464F;" d="M289.095,406.461l-13.785-60.165c-0.796-3.476-3.874-5.939-7.422-5.939h-23.775  c-3.548,0-6.626,2.463-7.423,5.939l-13.785,60.165c-0.616,2.689,0.255,5.505,2.279,7.368l25.673,23.626  c1.455,1.339,3.299,2.009,5.142,2.009c1.844,0,3.688-0.67,5.143-2.009l25.672-23.626  C288.84,411.966,289.711,409.151,289.095,406.461z"/>
<g>
	<path style="fill:#D3333C;" d="M275.903,348.883h-23.249l13.785,60.166l-23.225,21.373l7.644,7.034   c1.455,1.339,3.299,2.009,5.142,2.009c1.844,0,3.687-0.67,5.143-2.009l25.672-23.626c2.025-1.864,2.896-4.679,2.28-7.368   L275.903,348.883z"/>
	<path style="fill:#D3333C;" d="M276.027,348.883l15.326-30.001c-11.111-3.949-22.981-6.193-35.251-6.361   c-0.068-0.002-0.136-0.002-0.204,0c-12.331,0.169-24.258,2.435-35.416,6.421l15.471,29.942L276.027,348.883L276.027,348.883z"/>
</g>
<path style="fill:#AF273B;" d="M270.461,313.686l-17.738,35.197H256h20.027l15.326-30.001  C284.641,316.496,277.648,314.745,270.461,313.686z"/>
<path style="fill:#FFC89F;" d="M256,173.199c-30.838,0-55.926,27.056-55.926,60.312v44.978c0,33.256,25.089,60.312,55.927,60.312  s55.927-27.056,55.927-60.312v-44.978C311.927,200.255,286.838,173.199,256,173.199z"/>
<path style="fill:#F7B081;" d="M256,173.199c-4.738,0-9.338,0.644-13.734,1.846c24.219,6.62,42.193,30.32,42.193,58.466v44.978  c0,28.146-17.974,51.847-42.192,58.466c4.396,1.202,8.997,1.846,13.735,1.846c30.838,0,55.927-27.056,55.927-60.312v-44.978  C311.927,200.255,286.838,173.199,256,173.199z"/>
<path d="M311.927,255.993V233.51c0-33.256-25.089-60.312-55.927-60.312s-55.927,27.056-55.927,60.312V256h7.459  c42.363,0,57.796-30.848,57.796-30.848s10.788,30.699,39.14,30.841L311.927,255.993L311.927,255.993z"/>
<path style="fill:#FFC89F;" d="M108.876,53.143c-30.838,0-55.927,25.227-55.927,56.233v41.937c0,31.007,25.089,56.233,55.927,56.233  s55.927-25.227,55.927-56.233v-41.937C164.803,78.37,139.714,53.143,108.876,53.143z"/>
<path style="fill:#F7B081;" d="M108.876,53.143c-4.746,0-9.353,0.602-13.756,1.726c24.208,6.18,42.171,28.272,42.171,54.507v41.937  c0,26.235-17.963,48.328-42.171,54.508c4.403,1.124,9.011,1.726,13.756,1.726c30.838,0,55.927-25.227,55.927-56.233v-41.937  C164.803,78.37,139.714,53.143,108.876,53.143z"/>
<path d="M164.803,130.339v-20.962c0-31.007-25.089-56.233-55.927-56.233s-55.927,25.227-55.927,56.233v20.968h7.459  c42.363,0,57.796-28.762,57.796-28.762s10.788,28.622,39.14,28.755h7.459V130.339z"/>
<g>
</g>
<g>
</g>
<g>
</g>
<g>
</g>
<g>
</g>
<g>
</g>
<g>
</g>
<g>
</g>
<g>
</g>
<g>
</g>
<g>
</g>
<g>
</g>
<g>
</g>
<g>
</g>
<g>
</g>
</svg>
