<svg id="Capa_1" enable-background="new 0 0 512.002 512.002" height="100" viewBox="0 0 512.002 512.002" width="100" xmlns="http://www.w3.org/2000/svg"><g><g><g><path d="m441.216 84.319h-53.398l-3.324 4.263v20.875h-49.75l-7.539 3.863v51.326c0 3.305 2.679 5.984 5.985 5.984h108.026c3.305 0 5.984-2.679 5.984-5.984v-74.343c.001-3.305-2.679-5.984-5.984-5.984z" fill="#ff5595"/><path d="m380.453 111.665h-50.019l-3.229 1.654v51.326c0 3.028 2.257 5.504 5.175 5.903l49.454-57.229z" fill="#ff3581"/><path d="m352.872 113.319 3.229-1.654h-25.667l-3.229 1.654v51.326c0 3.028 2.257 5.504 5.175 5.903l20.491-23.713v-33.516z" fill="#ff0263"/><path d="m381.835 27.009h-106.956l-4.843 3.323v76l4.843 6.988h106.956c3.305 0 5.984-2.679 5.984-5.984v-74.343c0-3.305-2.68-5.984-5.984-5.984z" fill="#ff76aa"/><path d="m315.036 27.009h-40.157l-4.843 3.323v76l4.843 6.987h40.157z" fill="#ff5595"/><path d="m269.053 7.402h-25.647c-3.218 0-5.826 2.608-5.826 5.826v402.926l3.165 3.61h28.5l5.635-3.61v-402.925c-.001-3.218-2.61-5.827-5.827-5.827z" fill="#dbedff"/><path d="m256.229 13.229c0-3.218 2.608-5.826 5.826-5.826h-18.65c-3.218 0-5.826 2.608-5.826 5.826v402.926l3.165 3.61h18.65l-3.165-3.61z" fill="#b5dcff"/></g><path d="m366.111 225.298h-23.224c-7.291 0-14.191-3.235-18.911-8.792-8.774-10.33-19.515-15.44-26.305-17.811-5.157-1.801-9.924-4.57-14.114-8.075l-7.242-6.057c-3.961-3.313-9.766-3.361-13.695-.01-6.227 5.314-6.744 14.774-1.104 20.734l13.656 14.431c1.995 2.108.5 5.579-2.402 5.579h-46.196c-7.169 0-13.337 5.509-13.675 12.67-.36 7.646 5.732 13.957 13.299 13.957-7.169 0-13.338 5.509-13.675 12.671-.36 7.646 5.732 13.957 13.299 13.957h.376c-7.567 0-13.659 6.312-13.299 13.958.337 7.161 6.506 12.67 13.675 12.67h-.752c-7.566 0-13.659 6.312-13.299 13.958.337 7.161 6.505 12.671 13.675 12.671h67.95c7.762 0 15.445-1.587 22.575-4.667 6.68-2.885 13.929-4.21 21.205-4.21h28.18l5.223-5.708v-87.5z" fill="#ffcebe"/><g><path d="m366.111 225.298h-17.894v72.801c0 2.332-.873 4.58-2.448 6.301-1.768 1.932-4.267 3.033-6.886 3.033h-24.07c-7.294 0-14.562 1.332-21.256 4.231-7.108 3.079-14.779 4.645-22.525 4.645h-58.342c-.151.915-.211 1.861-.165 2.829.337 7.161 6.505 12.671 13.675 12.671h67.95c7.762 0 15.445-1.587 22.575-4.667 6.68-2.885 13.929-4.21 21.205-4.21h28.18l5.223-5.708v-87.5z" fill="#ffb1a0"/></g><path d="m286.065 475.76h-.752c7.169 0 13.337-5.509 13.675-12.67.36-7.646-5.732-13.958-13.299-13.958h.376c7.567 0 13.659-6.312 13.299-13.957-.337-7.161-6.506-12.67-13.675-12.67 7.566 0 13.659-6.312 13.299-13.957-.337-7.161-6.506-12.67-13.675-12.67h-46.195c-2.902 0-4.396-3.471-2.402-5.579l13.656-14.431c5.64-5.96 5.124-15.42-1.104-20.734-3.928-3.351-9.734-3.303-13.695.01l-7.242 6.057c-4.19 3.505-8.957 6.273-14.114 8.074-6.79 2.371-17.531 7.481-26.305 17.811-4.72 5.557-11.62 8.792-18.911 8.792h-23.224l-4.194 4.848v87l4.194 5.787h28.18c7.276 0 14.525 1.325 21.205 4.21 7.13 3.079 14.813 4.667 22.576 4.667h67.95c7.169 0 13.337-5.509 13.675-12.671.361-7.648-5.731-13.959-13.298-13.959z" fill="#ffcebe"/><g><path d="m240.555 487.721c-7.502 0-14.93-1.483-21.856-4.362-6.961-2.894-14.385-4.514-21.924-4.514h-23.811c-2.745 0-5.323-1.316-6.934-3.538-1.059-1.462-1.63-3.221-1.63-5.026v-74.405h-18.621l-4.194 4.848v87l4.194 5.787h28.18c7.276 0 14.525 1.325 21.205 4.21 7.13 3.079 14.813 4.667 22.576 4.667h67.95c7.169 0 13.337-5.509 13.675-12.671.032-.679-.004-1.342-.07-1.996z" fill="#ffb1a0"/></g><path d="m372.978 214.405h125.05c3.545 0 6.419 2.874 6.419 6.419v106.584c0 3.545-2.874 6.419-6.419 6.419h-125.05c-3.792 0-6.866-3.074-6.866-6.866v-105.69c-.001-3.792 3.073-6.866 6.866-6.866z" fill="#60b9fe"/><path d="m138.912 384.984h-125.049c-3.545 0-6.419 2.874-6.419 6.419v106.584c0 3.545 2.874 6.419 6.419 6.419h125.05c3.792 0 6.866-3.074 6.866-6.866v-105.69c0-3.792-3.074-6.866-6.867-6.866z" fill="#ff5595"/><path d="m498.027 298.05h-125.05c-3.792 0-6.866-3.074-6.866-6.866v35.775c0 3.792 3.074 6.866 6.866 6.866h125.05c3.545 0 6.418-2.874 6.418-6.418v-35.775c.001 3.545-2.873 6.418-6.418 6.418z" fill="#1ca8ff"/><path d="m138.912 468.629h-125.05c-3.545 0-6.418-2.874-6.418-6.419v35.775c0 3.545 2.874 6.419 6.418 6.419h125.05c3.792 0 6.866-3.074 6.866-6.866v-35.775c.001 3.792-3.073 6.866-6.866 6.866z" fill="#ff3581"/><g fill="#ffb1a0"><g><path d="m212.902 237.968c-.36 7.646 5.732 13.957 13.299 13.957-.062 0-.122.008-.184.009h39.764c4.142 0 7.5-3.358 7.5-7.5s-3.358-7.5-7.5-7.5h-52.777c-.044.342-.085.684-.102 1.034z"/><path d="m265.781 278.562c4.142 0 7.5-3.358 7.5-7.5s-3.358-7.5-7.5-7.5h-53.153c-.044.342-.085.684-.102 1.034-.36 7.646 5.732 13.957 13.299 13.957h.376c-.057 0-.112.008-.169.009z"/><path d="m225.651 305.19h40.13c4.142 0 7.5-3.358 7.5-7.5s-3.358-7.5-7.5-7.5h-52.773c-.095.757-.143 1.53-.106 2.321.337 7.161 6.506 12.67 13.675 12.67h-.752c-.059 0-.115.008-.174.009z"/></g><g><path d="m238.608 415.004c0 4.142 3.358 7.5 7.5 7.5h39.586c7.564-.003 13.654-6.313 13.294-13.957-.017-.353-.059-.698-.103-1.043h-52.778c-4.142 0-7.499 3.358-7.499 7.5z"/><path d="m238.608 441.632c0 4.142 3.358 7.5 7.5 7.5h39.96c7.566-.001 13.657-6.313 13.297-13.957-.017-.353-.058-.698-.103-1.043h-53.154c-4.143 0-7.5 3.358-7.5 7.5z"/><path d="m298.988 463.09c.037-.795-.01-1.57-.107-2.33h-52.773c-4.142 0-7.5 3.358-7.5 7.5s3.358 7.5 7.5 7.5h39.206c7.168 0 13.337-5.51 13.674-12.67z"/></g></g></g><g><path d="m498.084 207.002h-125.051c-6.722 0-12.364 4.647-13.924 10.893h-16.166c-5.067 0-9.877-2.241-13.195-6.147-9.701-11.421-21.423-17.2-29.548-20.036-4.225-1.475-8.186-3.745-11.774-6.747l-5.991-5.012v-59.036h37.327v43.826c0 7.247 5.919 13.484 13.484 13.484h108.026c7.436 0 13.484-6.049 13.484-13.484v-74.342c0-7.435-6.049-13.484-13.484-13.484h-45.897v-43.826c0-7.435-6.049-13.484-13.484-13.484h-99.456v-6.28c0-7.349-5.979-13.327-13.327-13.327h-25.646c-7.348 0-13.326 5.978-13.326 13.326v204.569h-3.503c-11.347 0-20.644 8.705-21.167 19.818-.244 5.195 1.394 10.149 4.636 14.123-2.938 3.388-4.786 7.724-5.011 12.504-.254 5.376 1.508 10.495 4.979 14.536-3.222 3.967-4.848 8.906-4.604 14.086.215 4.573 1.916 8.737 4.635 12.056-3.492 4.046-5.266 9.179-5.011 14.571.522 11.113 9.819 19.818 21.166 19.818h3.879v10.65l-6.559 5.487c-3.589 3.001-7.551 5.271-11.774 6.747-8.126 2.837-19.849 8.616-29.549 20.037-3.318 3.907-8.128 6.147-13.195 6.147h-16.166c-1.56-6.246-7.202-10.893-13.924-10.893h-125.049c-7.675-.001-13.919 6.243-13.919 13.918v106.584c0 7.675 6.244 13.918 13.919 13.918h45.248c4.143 0 7.5-3.358 7.5-7.5s-3.357-7.5-7.5-7.5h-44.167v-104.421h123.335v104.421h-44.168c-4.143 0-7.5 3.358-7.5 7.5s3.357 7.5 7.5 7.5h44.802c6.722 0 12.364-4.647 13.924-10.893h21.122c6.575 0 12.709 1.209 18.232 3.595 8.114 3.504 16.71 5.281 25.549 5.281h67.949c11.347 0 20.644-8.705 21.166-19.817.255-5.392-1.519-10.525-5.01-14.571 2.718-3.319 4.419-7.484 4.634-12.057.244-5.179-1.382-10.119-4.604-14.085 3.471-4.041 5.233-9.16 4.979-14.535-.225-4.781-2.073-9.116-5.011-12.504 3.243-3.974 4.88-8.929 4.636-14.124-.523-11.113-9.82-19.818-21.167-19.818h-2.935v-49.067h11.771c8.839 0 17.435-1.777 25.55-5.282 5.523-2.385 11.657-3.595 18.231-3.595h21.122c1.56 6.246 7.202 10.893 13.924 10.893h125.051c7.675 0 13.918-6.244 13.918-13.918v-34.716c0-4.142-3.357-7.5-7.5-7.5s-7.5 3.358-7.5 7.5v33.634h-123.333c0-11.104 0-91.757 0-104.421h123.335v35.787c0 4.142 3.357 7.5 7.5 7.5s7.5-3.358 7.5-7.5v-36.868c0-7.675-6.243-13.919-13.918-13.919zm-163.322-86.085h30.735l-30.735 35.568zm104.995-29v71.311h-90.997l37.072-42.901c5.518-1.69 9.542-6.83 9.542-12.893v-15.517zm-59.382-57.311v71.311c-9.526 0-87.929 0-97.94 0v-71.311zm-135.239-19.606h22.299v159.767c-9.84 1.126-16.744 10.145-17.249 19.613-.316 5.929 1.837 11.823 5.94 16.16 2.836 2.997 1.391 1.47 6.96 7.355h-17.95zm46.417 393.997c.156 3.357-2.5 6.104-5.808 6.104h-39.579c-4.143 0-7.5 3.358-7.5 7.5s3.357 7.5 7.5 7.5h39.579c3.266 0 6.04 2.478 6.184 5.523.143 3.058-2.074 6.104-6.184 6.104h-39.579c-4.143 0-7.5 3.358-7.5 7.5s3.357 7.5 7.5 7.5h39.579c3.301 0 5.965 2.742 5.807 6.105-.143 3.045-2.917 5.523-6.183 5.523h-39.203c-4.143 0-7.5 3.358-7.5 7.5s3.357 7.5 7.5 7.5h39.203c4.561 0 6.705 3.005 6.559 6.105-.143 3.045-2.917 5.523-6.183 5.523h-67.949c-6.781 0-13.376-1.363-19.602-4.052-7.412-3.201-15.547-4.824-24.18-4.824h-20.68v-82.636h15.724c9.478 0 18.454-4.168 24.627-11.436 7.52-8.853 16.691-13.362 23.062-15.586 5.938-2.074 11.474-5.237 16.454-9.402l7.24-6.057c1.11-.928 2.866-1.038 4.015-.057 2.963 2.526 3.217 7.03.525 9.873l-13.656 14.431c-6.523 6.892-1.586 18.235 7.849 18.235h46.195c3.266.001 6.04 2.478 6.184 5.524zm-24.118-20.523h-18.519l6.96-7.355c8.596-9.083 7.77-23.528-1.684-31.595-2.568-2.191-5.81-3.633-9.057-4.107v-6.009h22.299v49.066zm46.374-68.12c-6.227 2.689-12.821 4.052-19.603 4.052-9.524 0-57.759 0-67.949 0-3.266 0-6.04-2.478-6.184-5.524-.144-3.09 1.976-6.104 6.56-6.104h39.203c4.143 0 7.5-3.358 7.5-7.5s-3.357-7.5-7.5-7.5h-39.203c-3.266 0-6.039-2.478-6.183-5.522-.159-3.373 2.515-6.106 5.807-6.106h39.579c4.143 0 7.5-3.358 7.5-7.5s-3.357-7.5-7.5-7.5h-39.579c-4.099 0-6.327-3.038-6.183-6.104.143-3.045 2.917-5.523 6.183-5.523h39.579c4.143 0 7.5-3.358 7.5-7.5s-3.357-7.5-7.5-7.5h-39.579c-3.289 0-5.966-2.731-5.807-6.105.143-3.045 2.917-5.523 6.183-5.523h46.195c4.3 0 8.221-2.573 9.926-6.533 1.709-3.968.895-8.561-2.076-11.702l-13.657-14.431c-2.691-2.844-2.441-7.343.525-9.874 1.144-.976 2.899-.877 4.015.058l7.241 6.058c4.98 4.166 10.516 7.329 16.454 9.402 6.369 2.224 15.54 6.733 23.061 15.585 6.173 7.268 15.149 11.437 24.627 11.437h15.724v82.635h-20.68c-8.633 0-16.767 1.623-24.179 4.824z"/></g></g></svg>