<?xml version="1.0" encoding="iso-8859-1"?>
<!-- Generator: Adobe Illustrator 19.0.0, SVG Export Plug-In . SVG Version: 6.00 Build 0)  -->
<svg xmlns="http://www.w3.org/2000/svg" xmlns:xlink="http://www.w3.org/1999/xlink" version="1.1" id="Layer_1" height="100" width="100" viewBox="0 0 512 512" style="enable-background:new 0 0 512 512;" xml:space="preserve">
<g>
	<path style="fill:#546F7A;" d="M397.65,410.828c-1.907,0-3.815-0.722-5.281-2.167l-42.099-41.558   c-2.954-2.916-2.986-7.676-0.068-10.629c2.916-2.954,7.674-2.986,10.629-0.069l42.099,41.558c2.954,2.916,2.986,7.676,0.068,10.629   C401.529,410.081,399.589,410.828,397.65,410.828z"/>
	<path style="fill:#546F7A;" d="M163.234,179.427c-1.907,0-3.815-0.722-5.28-2.167l-56.602-55.874   c-2.954-2.916-2.986-7.676-0.068-10.629c2.916-2.954,7.675-2.986,10.629-0.069l56.602,55.874c2.954,2.916,2.986,7.676,0.068,10.63   C167.113,178.681,165.174,179.427,163.234,179.427z"/>
	<path style="fill:#546F7A;" d="M113.953,410.4c-1.943,0-3.886-0.75-5.358-2.244c-2.911-2.958-2.873-7.718,0.085-10.629   l42.49-41.817c2.958-2.912,7.717-2.872,10.629,0.085c2.911,2.958,2.873,7.718-0.085,10.629l-42.49,41.817   C117.761,409.682,115.856,410.4,113.953,410.4z"/>
	<path style="fill:#546F7A;" d="M348.065,179.427c-1.94,0-3.879-0.746-5.35-2.236c-2.916-2.953-2.885-7.713,0.068-10.63   l56.602-55.874c2.954-2.915,7.714-2.886,10.629,0.069c2.916,2.953,2.885,7.713-0.068,10.629l-56.602,55.874   C351.88,178.706,349.971,179.427,348.065,179.427z"/>
</g>
<g>
	<path style="fill:#F7CB4F;" d="M68.662,0C30.935,0,0.242,30.693,0.242,68.42s30.693,68.42,68.42,68.42s68.42-30.693,68.42-68.42   S106.39,0,68.662,0z"/>
	<path style="fill:#F7CB4F;" d="M443.339,0c-37.727,0-68.42,30.693-68.42,68.42s30.693,68.42,68.42,68.42s68.42-30.693,68.42-68.42   S481.066,0,443.339,0z"/>
	<path style="fill:#F7CB4F;" d="M68.662,375.159c-37.727,0-68.42,30.693-68.42,68.42c0,37.728,30.693,68.421,68.42,68.421   s68.42-30.693,68.42-68.421C137.083,405.852,106.39,375.159,68.662,375.159z"/>
</g>
<g>
	<path style="fill:#F4B008;" d="M68.662,0c-4.675,0-9.241,0.474-13.656,1.372c31.206,6.346,54.765,33.996,54.765,67.049   s-23.558,60.702-54.765,67.049c4.414,0.898,8.981,1.372,13.656,1.372c37.727,0,68.42-30.693,68.42-68.42S106.39,0,68.662,0z"/>
	<path style="fill:#F4B008;" d="M68.662,375.159c-4.675,0-9.241,0.474-13.656,1.372c31.206,6.346,54.765,33.996,54.765,67.048   s-23.558,60.703-54.765,67.049c4.414,0.898,8.981,1.372,13.656,1.372c37.727,0,68.42-30.693,68.42-68.421   C137.083,405.852,106.39,375.159,68.662,375.159z"/>
</g>
<path style="fill:#F7CB4F;" d="M443.339,375.159c-37.727,0-68.42,30.693-68.42,68.42c0,37.728,30.693,68.421,68.42,68.421  s68.42-30.693,68.42-68.421C511.759,405.852,481.066,375.159,443.339,375.159z"/>
<g>
	<path style="fill:#F4B008;" d="M443.339,0c-4.65,0-9.192,0.471-13.585,1.359c31.241,6.319,54.836,33.984,54.836,67.061   s-23.594,60.744-54.836,67.061c4.393,0.888,8.935,1.359,13.585,1.359c37.727,0,68.42-30.693,68.42-68.42S481.066,0,443.339,0z"/>
	<path style="fill:#F4B008;" d="M443.339,375.159c-4.65,0-9.192,0.471-13.585,1.359c31.241,6.319,54.836,33.984,54.836,67.061   s-23.594,60.743-54.836,67.062c4.393,0.888,8.935,1.359,13.585,1.359c37.727,0,68.42-30.693,68.42-68.421   C511.759,405.852,481.066,375.159,443.339,375.159z"/>
</g>
<path style="fill:#EFE7E4;" d="M256.309,128.32c-78.451,0-142.276,63.825-142.276,142.277c0,78.451,63.825,142.276,142.276,142.276  s142.276-63.825,142.276-142.276C398.585,192.145,334.761,128.32,256.309,128.32z"/>
<path style="fill:#D8D1D0;" d="M256.309,128.32c-4.649,0-9.244,0.232-13.78,0.669c72.009,6.953,128.496,67.804,128.496,141.608  c0,73.803-56.487,134.654-128.496,141.607c4.536,0.438,9.131,0.669,13.78,0.669c78.451,0,142.276-63.825,142.276-142.276  C398.585,192.145,334.761,128.32,256.309,128.32z"/>
<path style="fill:#68B9D8;" d="M351.268,370.604c-6.017-19.31-18.778-36.896-35.93-49.519  c-17.207-12.664-38.133-19.794-58.926-20.078c-0.068-0.002-0.137-0.002-0.205,0c-20.793,0.284-41.72,7.414-58.927,20.078  c-17.152,12.624-29.912,30.21-35.929,49.519c-0.893,2.863,0.003,5.983,2.277,7.937c25.762,22.14,58.677,34.333,92.681,34.333  c34.004,0,66.919-12.193,92.682-34.333C351.266,376.587,352.161,373.466,351.268,370.604z"/>
<path style="fill:#3695B2;" d="M315.337,321.085c-17.207-12.664-38.133-19.794-58.926-20.078c-0.068-0.002-0.137-0.002-0.205,0  c-10.067,0.137-20.162,1.893-29.854,5.092c4.842,0.99,11.353,2.034,19.935,3.136c35.863,4.497,67.302,30.042,77.761,63.607  c1.481,4.348,2.578,8.427,3.334,12.264l0.718,8.327c7.358-4.299,14.355-9.273,20.892-14.891c2.275-1.954,3.17-5.074,2.277-7.937  C345.251,351.293,332.49,333.707,315.337,321.085z"/>
<path style="fill:#F2464F;" d="M264.188,412.646c0.144-0.114,0.288-0.229,0.424-0.354l20.415-18.684  c2.068-1.892,2.957-4.752,2.328-7.483l-12.599-54.693c-0.813-3.531-3.957-6.032-7.58-6.032h-21.731c-3.623,0-6.767,2.501-7.58,6.032  l-12.599,54.693c-0.629,2.731,0.261,5.591,2.328,7.483l20.415,18.684c0.136,0.125,0.28,0.24,0.424,0.354  c2.619,0.145,5.244,0.228,7.879,0.228C258.943,412.874,261.569,412.792,264.188,412.646z"/>
<g>
	<path style="fill:#D3333C;" d="M264.611,412.292l20.415-18.684c2.069-1.892,2.957-4.752,2.328-7.483l-11.912-51.712h-19.133h-4.533   l12.176,52.851l-15.159,13.874l-6.668,5.77l5.882,5.384c0.136,0.125,0.28,0.24,0.424,0.354c2.619,0.145,5.244,0.228,7.879,0.228   c2.634,0,5.26-0.082,7.878-0.228C264.331,412.532,264.474,412.417,264.611,412.292z"/>
	<path style="fill:#D3333C;" d="M285.235,315.039c0.572-1.11,2.566-4.602,4.099-7.87c-10.619-3.877-21.787-6.01-32.922-6.162   c-0.068-0.002-0.137-0.002-0.205,0c-11.031,0.15-22.094,2.246-32.625,6.054c1.554,3.537,3.296,6.995,3.802,7.978l9.972,19.374   h37.908L285.235,315.039z"/>
</g>
<path style="fill:#AF273B;" d="M289.334,307.168c-6.872-2.509-13.974-4.274-21.148-5.258l-16.409,32.503h4.533h18.954l9.972-19.374  C285.806,313.928,287.8,310.437,289.334,307.168z"/>
<g>
	<path style="fill:#465A65;" d="M59.107,95.921c-1.993,0-3.906-0.792-5.315-2.201L34.682,74.61c-2.935-2.936-2.935-7.695,0-10.631   c2.935-2.934,7.695-2.934,10.629,0l13.795,13.796l32.905-32.906c2.935-2.934,7.695-2.934,10.629,0c2.935,2.936,2.935,7.695,0,10.63   L64.422,93.72C63.013,95.13,61.101,95.921,59.107,95.921z"/>
	<path style="fill:#465A65;" d="M433.784,95.921c-1.993,0-3.906-0.792-5.315-2.201l-19.11-19.11c-2.935-2.936-2.935-7.695,0-10.631   c2.935-2.934,7.695-2.934,10.63,0l13.795,13.796L466.69,44.87c2.935-2.934,7.695-2.934,10.629,0c2.935,2.936,2.935,7.695,0,10.63   l-38.22,38.22C437.689,95.13,435.777,95.921,433.784,95.921z"/>
	<path style="fill:#465A65;" d="M59.107,471.081c-1.993,0-3.906-0.792-5.315-2.201l-19.11-19.11c-2.935-2.936-2.935-7.695,0-10.63   c2.935-2.934,7.695-2.934,10.629,0l13.795,13.796l32.905-32.906c2.935-2.934,7.695-2.934,10.629,0c2.935,2.936,2.935,7.695,0,10.63   l-38.219,38.22C63.013,470.289,61.101,471.081,59.107,471.081z"/>
	<path style="fill:#465A65;" d="M433.784,471.081c-1.993,0-3.906-0.792-5.315-2.201l-19.11-19.11c-2.935-2.936-2.935-7.695,0-10.63   c2.935-2.934,7.695-2.934,10.63,0l13.795,13.796l32.905-32.906c2.935-2.934,7.695-2.934,10.629,0c2.935,2.936,2.935,7.695,0,10.63   l-38.219,38.22C437.689,470.289,435.777,471.081,433.784,471.081z"/>
</g>
<path style="fill:#FFC89F;" d="M256.309,176.032c-28.25,0-51.232,22.983-51.232,51.232v37.617c0,28.25,22.982,51.232,51.232,51.232  c28.25,0,51.232-22.983,51.232-51.232v-37.617C307.54,199.015,284.558,176.032,256.309,176.032z"/>
<path style="fill:#F7B081;" d="M256.309,176.032c-4.759,0-9.362,0.666-13.738,1.886c21.596,6.021,37.493,25.855,37.493,49.346  v37.617c0,23.49-15.897,43.325-37.493,49.346c4.376,1.22,8.98,1.886,13.738,1.886c28.25,0,51.232-22.983,51.232-51.232v-37.617  C307.54,199.015,284.558,176.032,256.309,176.032z"/>
<path d="M307.54,246.069v-18.804c0-28.25-22.982-51.232-51.232-51.232c-28.25,0-51.232,22.983-51.232,51.232v18.808h7.516  c38.208,0,52.129-25.799,52.129-25.799s9.729,25.675,35.301,25.794L307.54,246.069z"/>
<g>
</g>
<g>
</g>
<g>
</g>
<g>
</g>
<g>
</g>
<g>
</g>
<g>
</g>
<g>
</g>
<g>
</g>
<g>
</g>
<g>
</g>
<g>
</g>
<g>
</g>
<g>
</g>
<g>
</g>
</svg>
