<svg height="496pt" viewBox="0 0 496.1 496" width="496pt" xmlns="http://www.w3.org/2000/svg"><g fill="#7ecb92"><path d="m280 112.050781c0 13.253907-10.746094 24-24 24s-24-10.746093-24-24c0-13.253906 10.746094-24 24-24s24 10.746094 24 24zm0 0"/><path d="m472 176.050781c0 13.253907-10.746094 24-24 24s-24-10.746093-24-24c0-13.253906 10.746094-24 24-24s24 10.746094 24 24zm0 0"/><path d="m280 432.050781v-48h-16l40-48 40 48h-16v48zm0 0"/><path d="m392 384.050781v-48h-16l40-48 40 48h-16v48zm0 0"/></g><path d="m248 488.050781v-32c0-44.199219-35.800781-80-80-80h-80c-44.199219 0-80 35.800781-80 80v32zm0 0" fill="#b64f86"/><path d="m144 376.050781h-56c-44.199219 0-80 35.800781-80 80v32h216v-32c0-44.199219-35.800781-80-80-80zm0 0" fill="#e087a6"/><path d="m96 376.050781 32 40 32-40" fill="#db9b7c"/><path d="m72 328.050781h-16c-13.300781 0-24-10.699219-24-24s10.699219-24 24-24h16" fill="#db9b7c"/><path d="m184 280.050781h16c13.300781 0 24 10.699219 24 24s-10.699219 24-24 24h-16" fill="#efbe9a"/><path d="m192 240.050781v72c0 35.300781-28.699219 64-64 64s-64-28.699219-64-64v-72zm0 0" fill="#db9b7c"/><path d="m116 374.851562c29.601562-5.601562 52-31.601562 52-62.800781v-72h-104v72c0 31.199219 22.398438 57.199219 52 62.800781zm0 0" fill="#efbe9a"/><path d="m144 224.050781v8c0 26.5-21.5 48-48 48h-48v-40c0-30.902343 25.101562-56 56-56h48c30.898438 0 56 25.097657 56 56v40h-40c-13.300781 0-24-10.699219-24-24zm0 0" fill="#976947"/><path d="m183.5 193.75c-9-6.101562-19.800781-9.699219-31.5-9.699219h-48c-30.898438 0-56 25.097657-56 56v40h48c26.5 0 48-21.5 48-48v24c0 8.300781 4.199219 15.597657 10.601562 19.898438 18.097657-18.199219 29.398438-43.699219 29.398438-71.898438 0-3.5-.199219-6.902343-.5-10.300781zm0 0" fill="#c18e59"/><path d="m96 288.050781h-48v-16h48c22.101562 0 40-17.902343 40-40v-8h16v8c0 30.898438-25.101562 56-56 56zm0 0"/><path d="m128 384.050781c-39.699219 0-72-32.300781-72-72v-32h16v32c0 30.898438 25.101562 56 56 56s56-25.101562 56-56v-32h16v32c0 39.699219-32.300781 72-72 72zm0 0"/><path d="m208 288.050781h-40c-17.601562 0-32-14.402343-32-32v-32h16v32c0 8.800781 7.199219 16 16 16h40zm0 0"/><path d="m64 336.050781h-8c-17.601562 0-32-14.402343-32-32 0-17.601562 14.398438-32 32-32h8v16h-8c-8.800781 0-16 7.199219-16 16s7.199219 16 16 16h8zm0 0"/><path d="m200 336.050781h-8v-16h8c8.800781 0 16-7.199219 16-16s-7.199219-16-16-16h-8v-16h8c17.601562 0 32 14.398438 32 32 0 17.597657-14.398438 32-32 32zm0 0"/><path d="m216 280.050781h-16v-40c0-26.5-21.5-48-48-48h-48c-26.5 0-48 21.5-48 48v40h-16v-40c0-35.300781 28.699219-64 64-64h48c35.300781 0 64 28.699219 64 64zm0 0"/><path d="m248 496.050781h-240c-4.398438 0-8-3.601562-8-8v-32c0-48.5 39.5-88 88-88h80c48.5 0 88 39.5 88 88v32c0 4.398438-3.601562 8-8 8zm-232-16h224v-24c0-39.699219-32.300781-72-72-72h-80c-39.699219 0-72 32.300781-72 72zm0 0"/><path d="m128 424.050781c-2.398438 0-4.699219-1.101562-6.199219-3l-32-40 12.5-10 25.800781 32.199219 25.796876-32.199219 12.5 10-32 40c-1.699219 1.898438-4 3-6.398438 3zm0 0"/><path d="m352 288.050781c-36.398438 0-56-74.199219-56-144s19.601562-143.9999998 56-143.9999998 56 74.1992188 56 143.9999998-19.601562 144-56 144zm0-272c-16.699219 0-40 48.699219-40 128s23.300781 128 40 128 40-48.699219 40-128-23.300781-128-40-128zm0 0"/><path d="m474.699219 174.449219-8.5-13.597657c8.902343-5.5 13.800781-11.5 13.800781-16.800781 0-16.699219-48.699219-40-128-40-25.601562 0-50.398438 2.597657-71.699219 7.398438l-3.5-15.597657c22.5-5.101562 48.5-7.800781 75.300781-7.800781 69.796876 0 144 19.597657 144 56-.101562 7.800781-3.800781 19.398438-21.402343 30.398438zm0 0"/><path d="m352 200.050781c-69.800781 0-144-19.601562-144-56 0-7.800781 3.699219-19.402343 21.300781-30.402343l8.5 13.601562c-8.902343 5.5-13.800781 11.5-13.800781 16.800781 0 16.699219 48.699219 40 128 40 25.601562 0 50.398438-2.601562 71.699219-7.402343l3.5 15.601562c-22.398438 5.101562-48.398438 7.800781-75.199219 7.800781zm0 0"/><path d="m256 144.050781c-17.601562 0-32-14.402343-32-32 0-17.601562 14.398438-32 32-32s32 14.398438 32 32c0 17.597657-14.398438 32-32 32zm0-48c-8.800781 0-16 7.199219-16 16s7.199219 16 16 16 16-7.199219 16-16-7.199219-16-16-16zm0 0"/><path d="m448 208.050781c-17.601562 0-32-14.402343-32-32 0-17.601562 14.398438-32 32-32s32 14.398438 32 32c0 17.597657-14.398438 32-32 32zm0-48c-8.800781 0-16 7.199219-16 16s7.199219 16 16 16 16-7.199219 16-16-7.199219-16-16-16zm0 0"/><path d="m336 432.050781h-16v-48c0-4.101562 3-7.402343 7-7.902343l-23-27.597657-23 27.597657c3.898438.5 7 3.902343 7 7.902343v48h-16v-40h-8c-3.101562 0-5.898438-1.800781-7.199219-4.601562s-.902343-6.097657 1.097657-8.5l40-48c3-3.597657 9.203124-3.597657 12.300781 0l40 48c2 2.402343 2.402343 5.699219 1.101562 8.5s-4.101562 4.601562-7.199219 4.601562h-8v40zm0 0"/><path d="m272 448.050781h16v16h-16zm0 0"/><path d="m272 480.050781h16v16h-16zm0 0"/><path d="m320 448.050781h16v16h-16zm0 0"/><path d="m320 480.050781h16v16h-16zm0 0"/><path d="m448 384.050781h-16v-48c0-4.101562 3-7.402343 7-7.902343l-23-27.597657-23 27.597657c3.898438.5 7 3.902343 7 7.902343v48h-16v-40h-8c-3.101562 0-5.898438-1.800781-7.199219-4.601562s-.902343-6.097657 1.097657-8.5l40-48c3-3.597657 9.203124-3.597657 12.300781 0l40 48c2 2.402343 2.402343 5.699219 1.101562 8.5s-4.101562 4.601562-7.199219 4.601562h-8v40zm0 0"/><path d="m384 400.050781h16v16h-16zm0 0"/><path d="m384 432.050781h16v16h-16zm0 0"/><path d="m432 400.050781h16v16h-16zm0 0"/><path d="m432 432.050781h16v16h-16zm0 0"/></svg>