<?xml version="1.0" encoding="UTF-8"?>
<svg xmlns="http://www.w3.org/2000/svg" xmlns:xlink="http://www.w3.org/1999/xlink" width="100" height="100" viewBox="0 0 58 60" version="1.1">
    <!-- Generator: Sketch 52.6 (67491) - http://www.bohemiancoding.com/sketch -->
    <title>016 - Price Tags</title>
    <desc>Created with Sketch.</desc>
    <g id="Page-1" stroke="none" stroke-width="1" fill="none" fill-rule="evenodd">
        <g id="016---Price-Tags" transform="translate(0.000000, -1.000000)">
            <g id="Icons_copy" transform="translate(1.000000, 2.000000)">
                <path d="M48.21,19.17 L30.73,54.32 C30.7,54.37 30.67,54.43 30.64,54.48 C29.8896863,55.7706366 28.2658632,56.2564705 26.93,55.59 L1.57,42.98 C0.897465985,42.6447222 0.385761745,42.0558931 0.147562195,41.34317 C-0.0906373551,40.6304469 -0.035799758,39.8522735 0.3,39.18 L17.78,4.03 C18.16033,3.269542 18.8610612,2.71922955 19.69,2.53 L30.48,0.07 C31.1178565,-0.0698160962 31.7842928,0.0112846241 32.37,0.3 L42.39,5.29 C42.9768651,5.57798681 43.4440211,6.06283814 43.71,6.66 L44.26,7.89 L44.27,7.89 L48.26,16.75 C48.609133,17.5229302 48.5907607,18.4121503 48.21,19.17 Z" id="Path" fill="#FFDC00"/>
                <path d="M48.26,16.75 L44.27,7.89 L44.26,7.89 L43.71,6.66 C43.4440211,6.06283814 42.9768651,5.57798681 42.39,5.29 L32.37,0.3 C31.7842928,0.0112846241 31.1178565,-0.0698160962 30.48,0.07 L29.4,0.316 L39.39,5.29 C39.9768651,5.57798681 40.4440211,6.06283814 40.71,6.66 L41.26,7.89 L41.27,7.89 L45.26,16.75 C45.609133,17.5229302 45.5907607,18.4121503 45.21,19.17 L27.73,54.32 C27.7,54.37 27.67,54.43 27.64,54.48 C27.4038166,54.8830635 27.0698674,55.220108 26.669,55.46 L26.93,55.59 C28.2658632,56.2564705 29.8896863,55.7706366 30.64,54.48 C30.67,54.43 30.7,54.37 30.73,54.32 L48.21,19.17 C48.5907607,18.4121503 48.609133,17.5229302 48.26,16.75 Z" id="Path" fill="#FF8401"/>
                <path d="M55.9,20.87 L45.59,56.09 C45.3998724,56.7654541 44.9466463,57.336362 44.3319223,57.6747422 C43.7171983,58.0131224 42.9923976,58.0906696 42.32,57.89 L30.64,54.48 C30.67,54.43 30.7,54.37 30.73,54.32 L48.21,19.17 C48.5907607,18.4121503 48.609133,17.5229302 48.26,16.75 L44.27,7.89 L48.24,9.06 C48.8306886,9.23081711 49.3434082,9.60209684 49.69,10.11 L55.54,18.64 C55.9801184,19.2950065 56.1116506,20.1097752 55.9,20.87 Z" id="Path" fill="#FF8401"/>
                <circle id="Oval" fill="#FF8401" cx="34.016" cy="9.556" r="3.777"/>
                <path d="M37.153,28.673 C36.8618158,29.2642884 36.3467293,29.7149441 35.722,29.925 L12.03,37.876 C10.7525685,38.2225977 9.42636734,37.513451 9.00525809,36.2586091 C8.58414884,35.0037672 9.21408978,33.6381637 10.442,33.144 L34.134,25.193 C35.0914041,24.8681992 36.1501558,25.1550406 36.8126655,25.9187153 C37.4751753,26.68239 37.6096936,27.7710304 37.153,28.673 Z" id="Path" fill="#FFFFFF"/>
                <path d="M37.294,26.765 C36.8535428,25.4599879 35.4405271,24.7570573 34.134,25.193 L33.284,25.479 C34.0822403,26.0005053 34.5129279,26.9317797 34.393352,27.8777485 C34.2737761,28.8237173 33.6249013,29.6185288 32.722,29.925 L9.88,37.591 C10.5151029,38.0105132 11.3075321,38.1155561 12.03,37.876 L35.722,29.925 C37.0215908,29.4783458 37.7217299,28.0709416 37.294,26.765 Z" id="Path" fill="#CCCCCC"/>
                <circle id="Oval" fill="#FFFFFF" cx="19.684" cy="21.409" r="3.777"/>
                <path d="M21.367,18.027 C20.3695824,17.5348315 19.2052684,17.5102926 18.188,17.96 C18.247,17.986 18.308,17.998 18.367,18.027 C19.6863625,18.6747828 20.5068135,20.0324514 20.4668013,21.5017161 C20.4267891,22.9709809 19.5336627,24.281984 18.181,24.857 C20.0579474,25.6880264 22.2547753,24.8642459 23.1225298,23.0039936 C23.9902844,21.1437413 23.2098385,18.9311476 21.367,18.027 Z" id="Path" fill="#CCCCCC"/>
                <circle id="Oval" fill="#FFFFFF" cx="26.481" cy="41.662" r="3.777"/>
                <path d="M28.163,38.28 C27.1656836,37.7874176 26.0011847,37.7628748 24.984,38.213 C25.043,38.238 25.105,38.251 25.163,38.28 C26.4823625,38.9277828 27.3028135,40.2854514 27.2628013,41.7547161 C27.2227891,43.2239809 26.3296627,44.534984 24.977,45.11 C26.8539474,45.9410264 29.0507753,45.1172459 29.9185298,43.2569936 C30.7862844,41.3967413 30.0058385,39.1841476 28.163,38.28 Z" id="Path" fill="#CCCCCC"/>
            </g>
            <g id="Icons_copy_2" transform="translate(1.000000, 2.000000)" fill="#FFFFFF">
                <path d="M42.32,57.89 C43.0217611,58.1005178 43.7798844,58.0034809 44.406,57.623 L33.64,54.48 C33.4827198,54.744455 33.2826728,54.980997 33.048,55.18 L42.32,57.89 Z" id="Path"/>
                <path d="M17.78,4.03 L0.3,39.18 C-0.035799758,39.8522735 -0.0906373551,40.6304469 0.147562195,41.34317 C0.385761745,42.0558931 0.897465985,42.6447222 1.57,42.98 L26.67,55.46 L26.931,55.59 C27.805147,56.0227691 28.8407708,55.9736157 29.67,55.46 L4.57,42.98 C3.89746599,42.6447222 3.38576174,42.0558931 3.14756219,41.34317 C2.90936264,40.6304469 2.96420024,39.8522735 3.3,39.18 L20.78,4.03 C21.16033,3.269542 21.8610612,2.71922955 22.69,2.53 L32.4,0.316 L32.37,0.3 C31.7842928,0.0112846241 31.1178565,-0.0698160962 30.48,0.07 L29.4,0.316 L19.69,2.53 C18.8610612,2.71922955 18.16033,3.269542 17.78,4.03 Z" id="Path"/>
            </g>
            <g id="Icons">
                <rect id="Rectangle" fill="#FFFFFF" transform="translate(3.078912, 37.599622) rotate(-63.551000) translate(-3.078912, -37.599622) " x="-0.92108813" y="36.5996222" width="8" height="2"/>
                <path d="M3.1,38.6 C2.54771527,38.6027614 2.09776148,38.1572847 2.09500006,37.605 C2.09223863,37.0527153 2.53771527,36.6027615 3.09,36.6 L3.1,36.6 C3.65228475,36.6 4.1,37.0477153 4.1,37.6 C4.1,38.1522847 3.65228475,38.6 3.1,38.6 Z" id="Path" fill="#000000"/>
                <path d="M1.742,40.286 C1.50450749,40.1677926 1.22977755,40.1487967 0.978276213,40.2331931 C0.726774874,40.3175895 0.519114642,40.4984613 0.401,40.736 C-0.538146415,42.6313932 0.233350632,44.9293363 2.126,45.874 L27.485,58.49 C28.3945554,58.9458007 29.4488987,59.0178433 30.412,58.69 C31.0275938,58.4795946 31.5786243,58.1141925 32.012,57.629 L43.031,60.846 C43.9586695,61.1235442 44.9588632,61.0178692 45.8080503,60.5525921 C46.6572374,60.087315 47.2846251,59.3012237 47.55,58.37 L57.864,23.136 C58.1553327,22.0917716 57.9724642,20.9722508 57.364,20.075 L51.514,11.543 C51.035936,10.8470056 50.3323301,10.3373152 49.522,10.1 L45.991,9.06 L45.625,8.249 C45.260786,7.44246288 44.6291751,6.78647768 43.837,6.392 L40.237,4.6 L41.437,2.5 C41.7131424,2.02034069 41.5481593,1.40764237 41.0685,1.1315 C40.5888407,0.855357625 39.9761424,1.02034069 39.7,1.5 L38.44,3.7 L33.81,1.4 C33.0177996,1.00921377 32.1151577,0.903269877 31.254,1.1 L20.467,3.559 C19.3452105,3.8125575 18.3972376,4.55778688 17.886,5.588 L3.965,33.573 C3.71895718,34.067571 3.92042905,34.6679571 4.41500002,34.914 C4.909571,35.1600428 5.50995713,34.958571 5.756,34.464 L19.676,6.481 C19.9196042,5.98759945 20.3731448,5.63072108 20.91,5.51 L31.7,3.05 C32.1129895,2.9566636 32.5455157,3.00821366 32.925,3.196 L37.45,5.448 L36.534,7.048 C34.1191073,6.24123638 31.4966855,7.47590865 30.5799673,9.85124061 C29.663249,12.2265726 30.7762943,14.9028838 33.107062,15.9276257 C35.4378297,16.9523677 38.1623929,15.9632939 39.293,13.682 C40.2267077,11.7876718 39.8035887,9.50486333 38.253,8.071 L39.243,6.338 L42.943,8.181 C43.3213282,8.36948564 43.6229867,8.6828008 43.797,9.068 L48.344,19.155 C48.570166,19.6567393 48.5587836,20.2335735 48.313,20.726 L30.833,55.875 C30.3810657,56.7798808 29.2821272,57.14843 28.376,56.699 L3.017,44.083 C2.11174177,43.6314293 1.7427127,42.5323937 2.192,41.626 C2.43748361,41.1316857 2.23608087,40.5319531 1.742,40.286 Z M37.5,12.793 C36.8900233,14.0202298 35.4759763,14.6189759 34.1701924,14.2029314 C32.8644085,13.7868868 32.0573787,12.4804686 32.269793,11.1265688 C32.4822073,9.77266892 33.6505439,8.77616734 35.021,8.78 C35.1863511,8.78382251 35.3510194,8.80256525 35.513,8.836 L35.132,9.504 C34.8575661,9.98235688 35.022204,10.5925908 35.5,10.868 C35.7301014,11.0010721 36.0037153,11.0370579 36.2603999,10.9680083 C36.5170845,10.8989586 36.7357166,10.7305557 36.868,10.5 L37.218,9.888 C37.8558995,10.7242636 37.9651462,11.8496593 37.5,12.793 Z M50.106,21.619 C50.6202905,20.5900576 50.6437978,19.3842045 50.17,18.336 L47.07,11.465 L48.959,12.021 C49.3254056,12.1287642 49.6433358,12.3597935 49.859,12.675 L55.712,21.2 C55.9869673,21.6072029 56.0702547,22.1142333 55.94,22.588 L45.629,57.813 C45.5093755,58.2373867 45.2234151,58.5954682 44.836,58.806 C44.4577898,59.011831 44.0125811,59.0565321 43.601,58.93 L33.076,55.857 L50.106,21.619 Z" id="Shape" fill="#000000" fill-rule="nonzero"/>
                <path d="M9.116,35.951 C8.48259584,37.2152122 8.6743614,38.7366547 9.60165889,39.8041531 C10.5289564,40.8716515 12.0086183,41.2743446 13.349,40.824 L37.041,32.873 C38.7785273,32.1927227 39.6768508,30.2689754 39.083023,28.500036 C38.4891952,26.7310965 36.6120534,25.7390647 34.816,26.245 L11.124,34.2 C10.247946,34.4925389 9.52504977,35.1229131 9.116,35.951 Z M11.761,36.092 L35.453,28.142 C35.6058922,28.0896478 35.7663931,28.062954 35.928,28.063 C36.5697065,28.066167 37.1389207,28.4756159 37.346,29.083 C37.4723793,29.4605677 37.4406381,29.8732029 37.258,30.227 C37.085011,30.5808713 36.7774132,30.8506497 36.404,30.976 L12.712,38.928 C11.9290354,39.1883723 11.0827876,38.7674825 10.818,37.986 C10.5669891,37.2034268 10.9852482,36.3633603 11.761,36.092 Z" id="Shape" fill="#000000" fill-rule="nonzero"/>
                <path d="M20.676,28.185 C23.1017272,28.1892942 25.1453925,26.3745398 25.4279442,23.965321 C25.7104959,21.5561021 24.142178,19.3177366 21.7812809,18.7606585 C19.4203838,18.2035804 17.0168754,19.5047523 16.192627,21.7861522 C15.3683786,24.0675522 16.3852228,26.6044654 18.557,27.685 C19.2155042,28.0123473 19.9406214,28.1834462 20.676,28.185 Z M18.2,22.172 C18.630659,21.2647412 19.5176072,20.660694 20.5195585,20.5922882 C21.5215098,20.5238824 22.4823251,21.0017779 23.0322951,21.8420866 C23.582265,22.6823953 23.6356851,23.7541679 23.172,24.645 C22.4730603,25.9878033 20.827415,26.5234203 19.4720027,25.8492581 C18.1165903,25.1750958 17.5508426,23.5395643 18.2,22.172 Z" id="Shape" fill="#000000" fill-rule="nonzero"/>
                <path d="M25.961,39.133 C23.9126465,39.8224954 22.5824095,41.8013978 22.717272,43.9584718 C22.8521346,46.1155457 24.4184954,47.9133498 26.5367779,48.3423426 C28.6550605,48.7713354 30.7974885,47.7246321 31.761,45.79 C32.6222319,44.0595167 32.3557291,41.9805705 31.0858518,40.523277 C29.8159746,39.0659834 27.7930296,38.5175907 25.961,39.134 L25.961,39.133 Z M29.967,44.9 C29.4672782,45.9080511 28.4092176,46.5155004 27.2867183,46.438792 C26.164219,46.3620837 25.1986314,45.6163442 24.8406894,44.5496828 C24.4827475,43.4830214 24.8030352,42.3057778 25.6520432,41.5674863 C26.5010511,40.8291948 27.7113597,40.6754422 28.718,41.178 C30.0889423,41.8624329 30.6475706,43.5271362 29.967,44.9 Z" id="Shape" fill="#000000" fill-rule="nonzero"/>
            </g>
        </g>
    </g>
</svg>
