<?xml version="1.0" encoding="iso-8859-1"?>
<!-- Generator: Adobe Illustrator 19.0.0, SVG Export Plug-In . SVG Version: 6.00 Build 0)  -->
<svg version="1.1" id="Layer_1" xmlns="http://www.w3.org/2000/svg" xmlns:xlink="http://www.w3.org/1999/xlink" x="0px" y="0px" height="100" width="100"
	 viewBox="0 0 512 512" style="enable-background:new 0 0 512 512;" xml:space="preserve">
<polygon style="fill:#FF507D;" points="432,24 328,24 328,88 432,88 416,56 "/>
<rect x="328" y="24" style="fill:#D23C69;" width="24" height="64"/>
<rect x="224" y="320" style="fill:#7F8499;" width="64" height="56"/>
<path style="fill:#E6AF78;" d="M295.156,208.522l-18.734-9.367C273.712,197.801,272,195.03,272,192v-16h-32v16
	c0,3.03-1.712,5.801-4.422,7.155l-18.733,9.367c-5.42,2.71-8.844,8.25-8.844,14.31V232h96v-9.168
	C304,216.772,300.576,211.232,295.156,208.522z"/>
<path style="fill:#FFF082;" d="M295.156,208.522l-14.592-7.296C274.694,208.325,265.931,223,256,223s-18.694-14.675-24.563-21.775
	l-14.592,7.296c-5.42,2.71-8.844,8.25-8.844,14.311V320h96v-97.168C304,216.772,300.576,211.232,295.156,208.522z"/>
<path style="fill:#F0C087;" d="M256,184L256,184c-17.673,0-32-14.327-32-32v-16c0-13.255,10.745-24,24-24h16
	c13.255,0,24,10.745,24,24v16C288,169.673,273.673,184,256,184z"/>
<path style="fill:#E6AF78;" d="M248,152v-16c0-11.885,8.659-21.684,20-23.597c-1.308-0.221-2.63-0.403-4-0.403h-16
	c-13.255,0-24,10.745-24,24v16c0,17.673,14.327,32,32,32c4.25,0,8.289-0.868,12-2.373C256.282,176.875,248,165.422,248,152z"/>
<path style="fill:#694B4B;" d="M224,136c0,0,24,8,64,8v-8c0-13.255-10.745-24-24-24h-16C234.745,112,224,122.745,224,136L224,136z"
	/>
<path style="fill:#5A4146;" d="M248,136c0-11.885,8.659-21.684,20-23.597c-1.308-0.221-2.63-0.403-4-0.403h-16
	c-13.255,0-24,10.745-24,24c0,0,8.604,2.845,24,5.143V136z"/>
<g>
	<path style="fill:#FFDC64;" d="M225.6,227.199l-15.665-11.748c-1.182,2.251-1.934,4.742-1.934,7.382V336h24v-96
		C232,234.963,229.629,230.221,225.6,227.199z"/>
	<path style="fill:#FFDC64;" d="M286.401,227.199C282.372,230.221,280,234.963,280,240v96h24V222.832c0-2.64-0.752-5.13-1.934-7.382
		L286.401,227.199z"/>
</g>
<path id="SVGCleanerId_0" style="fill:#E6AF78;" d="M359.156,336.522l-18.734-9.367C337.712,325.801,336,323.03,336,320v-16h-32v16
	c0,3.03-1.712,5.801-4.422,7.155l-18.733,9.367c-5.42,2.71-8.844,8.25-8.844,14.31V360h96v-9.168
	C368,344.772,364.576,339.232,359.156,336.522z"/>
<path style="fill:#B4E66E;" d="M359.156,336.522l-14.592-7.296c-5.87,7.099-14.632,11.719-24.563,11.719s-18.694-4.62-24.563-11.719
	l-14.592,7.296c-5.42,2.71-8.844,8.25-8.844,14.31V432c0,4.418,3.582,8,8,8h80c4.418,0,8-3.582,8-8v-81.168
	C368,344.772,364.576,339.232,359.156,336.522z"/>
<path style="fill:#D29B6E;" d="M304,304v16c0,1.707-0.588,3.297-1.547,4.632C307.896,326.78,313.803,328,320,328
	s12.104-1.22,17.547-3.368C336.589,323.297,336,321.706,336,320v-16H304z"/>
<path id="SVGCleanerId_1" style="fill:#F0C087;" d="M320,312L320,312c-17.673,0-32-14.327-32-32v-16c0-13.255,10.745-24,24-24h16
	c13.255,0,24,10.745,24,24v16C352,297.673,337.673,312,320,312z"/>
<path id="SVGCleanerId_2" style="fill:#E6AF78;" d="M312,280v-16c0-11.885,8.659-21.684,20-23.597c-1.308-0.221-2.63-0.403-4-0.403
	h-16c-13.255,0-24,10.745-24,24v16c0,17.673,14.327,32,32,32c4.25,0,8.289-0.868,12-2.373C320.282,304.875,312,293.422,312,280z"/>
<path id="SVGCleanerId_3" style="fill:#694B4B;" d="M288,264c0,0,24,8,64,8v-8c0-13.255-10.745-24-24-24h-16
	C298.745,240,288,250.745,288,264L288,264z"/>
<path id="SVGCleanerId_4" style="fill:#5A4146;" d="M312,264c0-11.885,8.659-21.684,20-23.597c-1.308-0.221-2.63-0.403-4-0.403h-16
	c-13.255,0-24,10.745-24,24c0,0,8.604,2.845,24,5.143V264z"/>
<g>
	<path style="fill:#A0D755;" d="M289.6,355.199l-15.665-11.748c-1.182,2.251-1.934,4.742-1.934,7.382V432c0,4.418,3.582,8,8,8h16
		v-72C296,362.963,293.629,358.221,289.6,355.199z"/>
	<path style="fill:#A0D755;" d="M350.401,355.199C346.372,358.221,344,362.963,344,368v72h16c4.418,0,8-3.582,8-8v-81.167
		c0-2.64-0.752-5.13-1.934-7.382L350.401,355.199z"/>
</g>
<rect x="160" y="448" style="fill:#7F8499;" width="64" height="56"/>
<path style="fill:#E6AF78;" d="M231.156,336.522l-18.734-9.367C209.712,325.801,208,323.03,208,320v-16h-32v16
	c0,3.03-1.712,5.801-4.422,7.155l-18.733,9.367c-5.42,2.71-8.844,8.25-8.844,14.31V360h96v-9.168
	C240,344.772,236.576,339.232,231.156,336.522z"/>
<path style="fill:#B4E66E;" d="M231.156,336.522l-14.592-7.296C210.694,336.325,201.931,351,192,351s-18.694-14.675-24.563-21.775
	l-14.592,7.296c-5.42,2.71-8.844,8.25-8.844,14.31V448h96v-97.168C240,344.772,236.576,339.232,231.156,336.522z"/>
<path style="fill:#F0C087;" d="M192,312L192,312c-17.673,0-32-14.327-32-32v-16c0-13.255,10.745-24,24-24h16
	c13.255,0,24,10.745,24,24v16C224,297.673,209.673,312,192,312z"/>
<path style="fill:#E6AF78;" d="M184,280v-16c0-11.885,8.659-21.684,20-23.597c-1.308-0.221-2.63-0.403-4-0.403h-16
	c-13.255,0-24,10.745-24,24v16c0,17.673,14.327,32,32,32c4.25,0,8.289-0.868,12-2.373C192.282,304.875,184,293.422,184,280z"/>
<path style="fill:#694B4B;" d="M160,264c0,0,24,8,64,8v-8c0-13.255-10.745-24-24-24h-16C170.745,240,160,250.745,160,264L160,264z"
	/>
<path style="fill:#5A4146;" d="M184,264c0-11.885,8.659-21.684,20-23.597c-1.308-0.221-2.63-0.403-4-0.403h-16
	c-13.255,0-24,10.745-24,24c0,0,8.604,2.845,24,5.143V264z"/>
<g>
	<path style="fill:#A0D755;" d="M161.6,355.199l-15.665-11.748c-1.182,2.251-1.934,4.742-1.934,7.382V464h24v-96
		C168,362.963,165.629,358.221,161.6,355.199z"/>
	<path style="fill:#A0D755;" d="M222.401,355.199C218.372,358.221,216,362.963,216,368v96h24V350.832c0-2.64-0.752-5.13-1.934-7.382
		L222.401,355.199z"/>
</g>
<rect x="288" y="448" style="fill:#7F8499;" width="64" height="56"/>
<g>
	<path id="SVGCleanerId_0_1_" style="fill:#E6AF78;" d="M359.156,336.522l-18.734-9.367C337.712,325.801,336,323.03,336,320v-16h-32
		v16c0,3.03-1.712,5.801-4.422,7.155l-18.733,9.367c-5.42,2.71-8.844,8.25-8.844,14.31V360h96v-9.168
		C368,344.772,364.576,339.232,359.156,336.522z"/>
</g>
<path style="fill:#B4E66E;" d="M359.156,336.522l-14.592-7.296C338.694,336.325,329.931,351,320,351s-18.694-14.675-24.563-21.775
	l-14.592,7.296c-5.42,2.71-8.844,8.25-8.844,14.31V448h96v-97.168C368,344.772,364.576,339.232,359.156,336.522z"/>
<g>
	<path id="SVGCleanerId_1_1_" style="fill:#F0C087;" d="M320,312L320,312c-17.673,0-32-14.327-32-32v-16c0-13.255,10.745-24,24-24
		h16c13.255,0,24,10.745,24,24v16C352,297.673,337.673,312,320,312z"/>
</g>
<g>
	<path id="SVGCleanerId_2_1_" style="fill:#E6AF78;" d="M312,280v-16c0-11.885,8.659-21.684,20-23.597
		c-1.308-0.221-2.63-0.403-4-0.403h-16c-13.255,0-24,10.745-24,24v16c0,17.673,14.327,32,32,32c4.25,0,8.289-0.868,12-2.373
		C320.282,304.875,312,293.422,312,280z"/>
</g>
<g>
	<path id="SVGCleanerId_3_1_" style="fill:#694B4B;" d="M288,264c0,0,24,8,64,8v-8c0-13.255-10.745-24-24-24h-16
		C298.745,240,288,250.745,288,264L288,264z"/>
</g>
<g>
	<path id="SVGCleanerId_4_1_" style="fill:#5A4146;" d="M312,264c0-11.885,8.659-21.684,20-23.597c-1.308-0.221-2.63-0.403-4-0.403
		h-16c-13.255,0-24,10.745-24,24c0,0,8.604,2.845,24,5.143V264z"/>
</g>
<g>
	<path style="fill:#A0D755;" d="M350.401,355.199C346.372,358.221,344,362.963,344,368v96h24V350.832c0-2.64-0.752-5.13-1.934-7.382
		L350.401,355.199z"/>
	<path style="fill:#A0D755;" d="M289.6,355.199l-15.665-11.748c-1.182,2.251-1.934,4.742-1.934,7.382V464h24v-96
		C296,362.963,293.629,358.221,289.6,355.199z"/>
</g>
<path style="fill:#E6AF78;" d="M167.156,464.522l-18.734-9.367C145.712,453.801,144,451.03,144,448v-16h-32v16
	c0,3.03-1.712,5.801-4.422,7.155l-18.733,9.367c-5.42,2.71-8.844,8.25-8.844,14.31V488h96v-9.168
	C176,472.772,172.576,467.232,167.156,464.522z"/>
<path style="fill:#00C3FF;" d="M167.156,464.522l-14.592-7.296C146.694,464.325,137.931,479,128,479s-18.694-14.675-24.563-21.775
	l-14.592,7.296c-5.42,2.71-8.844,8.25-8.844,14.31V504h96v-25.168C176,472.772,172.576,467.232,167.156,464.522z"/>
<path style="fill:#F0C087;" d="M128,440L128,440c-17.673,0-32-14.327-32-32v-16c0-13.255,10.745-24,24-24h16
	c13.255,0,24,10.745,24,24v16C160,425.673,145.673,440,128,440z"/>
<path style="fill:#E6AF78;" d="M120,408v-16c0-11.885,8.659-21.684,20-23.597c-1.308-0.221-2.63-0.403-4-0.403h-16
	c-13.255,0-24,10.745-24,24v16c0,17.673,14.327,32,32,32c4.25,0,8.289-0.868,12-2.373C128.282,432.875,120,421.422,120,408z"/>
<path style="fill:#694B4B;" d="M96,392c0,0,24,8,64,8v-8c0-13.255-10.745-24-24-24h-16C106.745,368,96,378.745,96,392L96,392z"/>
<path style="fill:#5A4146;" d="M120,392c0-11.885,8.659-21.684,20-23.597c-1.308-0.221-2.63-0.403-4-0.403h-16
	c-13.255,0-24,10.745-24,24c0,0,8.604,2.845,24,5.143V392z"/>
<g>
	<path style="fill:#00AAF0;" d="M100.8,485.599l-18.865-14.148c-1.182,2.251-1.934,4.742-1.934,7.382V504h24v-12
		C104,489.481,102.814,487.11,100.8,485.599z"/>
	<path style="fill:#00AAF0;" d="M155.201,485.599C153.186,487.11,152,489.481,152,492v12h24v-25.167c0-2.64-0.752-5.13-1.934-7.382
		L155.201,485.599z"/>
</g>
<path style="fill:#E6AF78;" d="M295.156,464.522l-18.734-9.367C273.712,453.801,272,451.03,272,448v-16h-32v16
	c0,3.03-1.712,5.801-4.422,7.155l-18.733,9.367c-5.42,2.71-8.844,8.25-8.844,14.31V488h96v-9.168
	C304,472.772,300.576,467.232,295.156,464.522z"/>
<path style="fill:#00C3FF;" d="M295.156,464.522l-14.592-7.296C274.694,464.325,265.931,479,256,479s-18.694-14.675-24.563-21.775
	l-14.592,7.296c-5.42,2.71-8.844,8.25-8.844,14.31V504h96v-25.168C304,472.772,300.576,467.232,295.156,464.522z"/>
<path style="fill:#F0C087;" d="M256,440L256,440c-17.673,0-32-14.327-32-32v-16c0-13.255,10.745-24,24-24h16
	c13.255,0,24,10.745,24,24v16C288,425.673,273.673,440,256,440z"/>
<path style="fill:#E6AF78;" d="M248,408v-16c0-11.885,8.659-21.684,20-23.597c-1.308-0.221-2.63-0.403-4-0.403h-16
	c-13.255,0-24,10.745-24,24v16c0,17.673,14.327,32,32,32c4.25,0,8.289-0.868,12-2.373C256.282,432.875,248,421.422,248,408z"/>
<path style="fill:#694B4B;" d="M224,392c0,0,24,8,64,8v-8c0-13.255-10.745-24-24-24h-16C234.745,368,224,378.745,224,392L224,392z"
	/>
<path style="fill:#5A4146;" d="M248,392c0-11.885,8.659-21.684,20-23.597c-1.308-0.221-2.63-0.403-4-0.403h-16
	c-13.255,0-24,10.745-24,24c0,0,8.604,2.845,24,5.143V392z"/>
<g>
	<path style="fill:#00AAF0;" d="M228.8,485.599l-18.865-14.148c-1.182,2.251-1.934,4.742-1.934,7.382V504h24v-12
		C232,489.481,230.814,487.11,228.8,485.599z"/>
	<path style="fill:#00AAF0;" d="M283.201,485.599C281.186,487.11,280,489.481,280,492v12h24v-25.167c0-2.64-0.752-5.13-1.934-7.382
		L283.201,485.599z"/>
</g>
<path style="fill:#E6AF78;" d="M423.156,464.522l-18.734-9.367C401.712,453.801,400,451.03,400,448v-16h-32v16
	c0,3.03-1.712,5.801-4.422,7.155l-18.733,9.367c-5.42,2.71-8.844,8.25-8.844,14.31V488h96v-9.168
	C432,472.772,428.576,467.232,423.156,464.522z"/>
<path style="fill:#00C3FF;" d="M423.156,464.522l-14.592-7.296C402.694,464.325,393.931,479,384,479s-18.694-14.675-24.563-21.775
	l-14.592,7.296c-5.42,2.71-8.844,8.25-8.844,14.31V504h96v-25.168C432,472.772,428.576,467.232,423.156,464.522z"/>
<path style="fill:#F0C087;" d="M384,440L384,440c-17.673,0-32-14.327-32-32v-16c0-13.255,10.745-24,24-24h16
	c13.255,0,24,10.745,24,24v16C416,425.673,401.673,440,384,440z"/>
<path style="fill:#E6AF78;" d="M376,408v-16c0-11.885,8.659-21.684,20-23.597c-1.308-0.221-2.63-0.403-4-0.403h-16
	c-13.255,0-24,10.745-24,24v16c0,17.673,14.327,32,32,32c4.25,0,8.289-0.868,12-2.373C384.282,432.875,376,421.422,376,408z"/>
<path style="fill:#694B4B;" d="M352,392c0,0,24,8,64,8v-8c0-13.255-10.745-24-24-24h-16C362.745,368,352,378.745,352,392L352,392z"
	/>
<path style="fill:#5A4146;" d="M376,392c0-11.885,8.659-21.684,20-23.597c-1.308-0.221-2.63-0.403-4-0.403h-16
	c-13.255,0-24,10.745-24,24c0,0,8.604,2.845,24,5.143V392z"/>
<g>
	<path style="fill:#00AAF0;" d="M356.8,485.599l-18.865-14.148c-1.182,2.251-1.934,4.742-1.934,7.382V504h24v-12
		C360,489.481,358.814,487.11,356.8,485.599z"/>
	<path style="fill:#00AAF0;" d="M411.201,485.599C409.186,487.11,408,489.481,408,492v12h24v-25.167c0-2.64-0.752-5.13-1.934-7.382
		L411.201,485.599z"/>
</g>
<path style="fill:#F0C087;" d="M336,200h-8c-8.837,0-16-7.163-16-16l0,0c0-8.837,7.163-16,16-16h8c8.837,0,16,7.163,16,16l0,0
	C352,192.836,344.837,200,336,200z"/>
<path style="fill:#E6AF78;" d="M328,184c0-7.447,5.111-13.65,12-15.434c-1.286-0.334-2.61-0.566-4-0.566h-8c-8.836,0-16,7.163-16,16
	c0,8.836,7.164,16,16,16h8c1.39,0,2.714-0.232,4-0.566C333.111,197.65,328,191.447,328,184z"/>
<path d="M426.846,461.296l-18.769-9.385c-0.177-0.088-0.287-0.266-0.287-0.462v-11.36c9.72-7.216,16.032-18.775,16.032-31.783
	v-16.032c0-17.396-14.152-31.549-31.548-31.549h-16.032c-0.173,0-0.344,0.01-0.517,0.013v-6.653c0-8.971-4.984-17.036-13.008-21.048
	l-18.771-9.387c-0.176-0.088-0.285-0.265-0.285-0.461V311.83c9.72-7.216,16.032-18.775,16.032-31.784v-16.032
	c0-14.811-10.262-27.264-24.048-30.64v-25.989h0.516c12.976,0,23.532-10.557,23.532-23.532s-10.557-23.532-23.532-23.532h-0.515
	V31.032h84.572l-10.604,21.21c-1.056,2.112-1.056,4.597,0,6.709l10.605,21.21h-60.01c-4.143,0-7.5,3.357-7.5,7.5s3.357,7.5,7.5,7.5
	h72.145c2.6,0,5.014-1.346,6.38-3.557c1.366-2.212,1.491-4.973,0.328-7.298l-14.355-28.71l14.355-28.71
	c1.163-2.325,1.038-5.086-0.328-7.298c-1.366-2.211-3.78-3.557-6.38-3.557h-96.708V7.5c0-4.143-3.357-7.5-7.5-7.5
	s-7.5,3.357-7.5,7.5v154.055c-9.309,3.139-16.033,11.946-16.033,22.3s6.724,19.16,16.032,22.3v26.314h-8.532
	c-0.173,0-0.344,0.01-0.517,0.013v-6.653c0-8.971-4.984-17.036-13.008-21.048l-18.771-9.387c-0.174-0.086-0.285-0.268-0.285-0.461
	v-11.36c9.72-7.216,16.032-18.775,16.032-31.783v-16.032c0-17.396-14.152-31.548-31.548-31.548h-16.033
	c-17.396,0-31.548,14.152-31.548,31.548v16.032c0,13.008,6.312,24.567,16.032,31.783v11.36c0,0.197-0.109,0.374-0.285,0.462
	l-18.771,9.386c-8.024,4.012-13.008,12.077-13.008,21.048v6.653c-0.172-0.003-0.343-0.013-0.516-0.013h-16.032
	c-17.396,0-31.548,14.152-31.548,31.548v16.032c0,13.008,6.312,24.568,16.032,31.784v11.359c0,0.196-0.109,0.373-0.286,0.462
	l-18.771,9.386c-8.024,4.012-13.009,12.077-13.009,21.048v6.653c-0.172-0.003-0.343-0.013-0.516-0.013h-16.032
	c-17.396,0-31.548,14.152-31.548,31.549v16.032c0,13.008,6.312,24.567,16.032,31.783v11.36c0,0.197-0.11,0.374-0.285,0.462
	l-18.771,9.385c-8.023,4.012-13.008,12.077-13.008,21.048V504.5c0,4.143,3.358,7.5,7.5,7.5s7.5-3.357,7.5-7.5v-22.156
	c0-3.253,1.807-6.177,4.716-7.632l13.023-6.511l11.885,11.885c2.931,2.932,6.827,4.546,10.972,4.546
	c4.145,0,8.041-1.614,10.971-4.545l11.886-11.886l13.023,6.511c2.909,1.455,4.717,4.379,4.717,7.632V504.5
	c0,4.143,3.358,7.5,7.5,7.5s7.5-3.357,7.5-7.5v-22.156c0-8.971-4.985-17.036-13.009-21.048l-18.77-9.385
	c-0.177-0.088-0.287-0.266-0.287-0.462V440.09c9.72-7.216,16.033-18.775,16.033-31.783v-16.032c0-11.758-6.47-22.027-16.033-27.453
	v-10.735c0-3.253,1.808-6.177,4.717-7.632l13.022-6.511l11.887,11.886c3.024,3.024,6.998,4.536,10.971,4.536
	s7.947-1.512,10.972-4.536l11.886-11.886l13.022,6.511c2.91,1.455,4.717,4.379,4.717,7.632v10.735
	c-9.562,5.426-16.032,15.695-16.032,27.453v16.032c0,13.008,6.312,24.567,16.032,31.783v11.36c0,0.197-0.11,0.374-0.285,0.462
	l-18.771,9.385c-8.024,4.012-13.008,12.077-13.008,21.048V504.5c0,4.143,3.358,7.5,7.5,7.5s7.5-3.357,7.5-7.5v-22.156
	c0-3.253,1.807-6.177,4.716-7.632l13.023-6.511l11.886,11.886c2.931,2.931,6.827,4.545,10.972,4.545
	c4.146,0,8.042-1.615,10.972-4.545l11.886-11.886l13.022,6.511c2.909,1.455,4.717,4.379,4.717,7.632V504.5
	c0,4.143,3.357,7.5,7.5,7.5s7.5-3.357,7.5-7.5v-22.156c0-8.971-4.984-17.036-13.009-21.048l-18.769-9.385
	c-0.177-0.088-0.287-0.266-0.287-0.462v-11.36c9.72-7.216,16.032-18.775,16.032-31.783v-16.032c0-11.758-6.47-22.027-16.032-27.453
	v-10.735c0-3.253,1.808-6.177,4.717-7.632l13.022-6.511l11.886,11.886c3.025,3.024,6.998,4.537,10.972,4.537
	s7.946-1.513,10.972-4.537l11.886-11.886l13.022,6.511c2.909,1.455,4.717,4.379,4.717,7.632v10.735
	c-9.562,5.426-16.032,15.695-16.032,27.453v16.032c0,13.008,6.312,24.567,16.032,31.783v11.36c0,0.197-0.109,0.374-0.284,0.462
	l-18.772,9.385c-8.023,4.012-13.008,12.077-13.008,21.048V504.5c0,4.143,3.357,7.5,7.5,7.5s7.5-3.357,7.5-7.5v-22.156
	c0-3.253,1.808-6.177,4.716-7.632l13.024-6.51l11.885,11.885c3.025,3.024,6.999,4.537,10.972,4.537
	c3.974,0,7.947-1.513,10.973-4.537l11.886-11.886l13.021,6.511c2.909,1.455,4.717,4.379,4.717,7.632V504.5
	c0,4.143,3.357,7.5,7.5,7.5s7.5-3.357,7.5-7.5v-22.156C439.855,473.373,434.87,465.308,426.846,461.296z M136.274,447.871v3.578
	c0,2.802,0.745,5.466,2.084,7.779l-10.252,10.252c-0.037,0.037-0.151,0.151-0.364,0.151c-0.214,0-0.328-0.114-0.365-0.152
	l-10.252-10.251c1.339-2.313,2.084-4.977,2.084-7.779v-3.578H136.274z M152.307,408.307c0,13.545-11.02,24.564-24.565,24.564
	s-24.564-11.02-24.564-24.564v-16.032c0-9.125,7.423-16.549,16.548-16.549h16.032c9.125,0,16.549,7.424,16.549,16.549V408.307z
	 M328.146,175.322h8.016c4.705,0,8.532,3.827,8.532,8.532s-3.827,8.532-8.532,8.532h-8.016c-4.705,0-8.532-3.827-8.532-8.532
	S323.441,175.322,328.146,175.322z M328.146,247.468c9.124,0,16.548,7.423,16.548,16.548v16.032
	c0,13.546-11.02,24.565-24.564,24.565s-24.564-11.02-24.564-24.565v-16.032c0-9.125,7.424-16.548,16.549-16.548L328.146,247.468
	L328.146,247.468z M231.436,135.758c0-9.124,7.423-16.548,16.548-16.548h16.033c9.124,0,16.548,7.424,16.548,16.548v16.032
	c0,13.545-11.02,24.564-24.564,24.564c-13.545,0-24.564-11.02-24.564-24.564v-16.032H231.436z M264.532,191.354v3.578
	c0,2.803,0.745,5.466,2.084,7.78l-10.253,10.251c-0.037,0.037-0.15,0.151-0.364,0.151s-0.328-0.114-0.365-0.152l-10.251-10.25
	c1.339-2.313,2.084-4.977,2.084-7.78v-3.578L264.532,191.354L264.532,191.354z M167.307,264.016c0-9.125,7.423-16.548,16.548-16.548
	h16.032c9.125,0,16.548,7.423,16.548,16.548v16.032c0,13.546-11.02,24.565-24.564,24.565s-24.564-11.02-24.564-24.565
	L167.307,264.016L167.307,264.016z M191.506,341.222l-10.251-10.251c1.339-2.313,2.084-4.977,2.084-7.78v-3.577h17.064v3.577
	c0,2.802,0.745,5.466,2.084,7.78l-10.251,10.251C192.035,341.422,191.708,341.424,191.506,341.222z M264.532,447.871v3.578
	c0,2.802,0.745,5.465,2.084,7.778l-10.253,10.253c-0.037,0.037-0.15,0.151-0.364,0.151s-0.328-0.114-0.365-0.152l-10.251-10.251
	c1.339-2.313,2.084-4.977,2.084-7.779v-3.578L264.532,447.871L264.532,447.871z M280.565,408.307
	c0,13.545-11.02,24.564-24.564,24.564c-13.545,0-24.564-11.02-24.564-24.564v-16.032c0-9.125,7.423-16.549,16.548-16.549h16.033
	c9.124,0,16.548,7.424,16.548,16.549v16.032H280.565z M277.54,333.038c-8.023,4.012-13.008,12.077-13.008,21.048v6.653
	c-0.172-0.003-0.343-0.013-0.516-0.013h-16.033c-0.173,0-0.344,0.01-0.516,0.013v-6.653c0-8.971-4.984-17.036-13.008-21.048
	l-18.772-9.387c-0.175-0.087-0.284-0.264-0.284-0.461v-11.359c9.72-7.216,16.032-18.775,16.032-31.784v-16.032
	c0-11.758-6.47-22.026-16.032-27.452v-10.735c0-3.253,1.807-6.177,4.716-7.632l13.023-6.511l11.886,11.885
	c2.931,2.931,6.827,4.545,10.972,4.545c4.146,0,8.042-1.615,10.971-4.545l11.887-11.886l13.023,6.512
	c2.909,1.455,4.717,4.379,4.717,7.632v10.735c-9.562,5.426-16.032,15.695-16.032,27.452v16.032c0,13.008,6.312,24.568,16.032,31.784
	v11.359c0,0.197-0.109,0.374-0.285,0.462L277.54,333.038z M319.765,341.222l-10.252-10.252c1.339-2.314,2.084-4.977,2.084-7.78
	v-3.577h17.064v3.577c0,2.802,0.745,5.466,2.084,7.779l-10.252,10.252C320.292,341.423,319.966,341.423,319.765,341.222z
	 M359.694,392.274c0-9.125,7.424-16.549,16.549-16.549h16.032c9.124,0,16.548,7.424,16.548,16.549v16.032
	c0,13.545-11.02,24.564-24.564,24.564s-24.564-11.02-24.564-24.564v-16.032H359.694z M383.894,469.479l-10.252-10.252
	c1.339-2.313,2.084-4.977,2.084-7.779v-3.578h17.064v3.578c0,2.802,0.745,5.465,2.084,7.779l-10.251,10.251
	C384.424,469.683,384.097,469.685,383.894,469.479z"/>
<g>
</g>
<g>
</g>
<g>
</g>
<g>
</g>
<g>
</g>
<g>
</g>
<g>
</g>
<g>
</g>
<g>
</g>
<g>
</g>
<g>
</g>
<g>
</g>
<g>
</g>
<g>
</g>
<g>
</g>
</svg>
